<mxfile host="app.diagrams.net" agent="Mozilla/5.0 (Windows NT 10.0; Win64; x64; rv:131.0) Gecko/20100101 Firefox/131.0" version="24.7.16">
  <diagram id="gfGRBr9NHLZNyXxwzx-x" name="Web Development Database">
    <mxGraphModel dx="2456" dy="1502" grid="1" gridSize="10" guides="1" tooltips="1" connect="1" arrows="1" fold="1" page="1" pageScale="1" pageWidth="850" pageHeight="1100" math="0" shadow="0">
      <root>
        <mxCell id="0" />
        <mxCell id="1" parent="0" />
        <mxCell id="0vl_ml9dGBKqO1DsII89-17" style="rounded=0;orthogonalLoop=1;jettySize=auto;html=1;entryX=0.5;entryY=1;entryDx=0;entryDy=0;endArrow=none;endFill=0;exitX=1;exitY=0;exitDx=0;exitDy=0;" parent="1" source="XNZ3zYuRLXU03UCSuWZl-1" target="41yildZD4MA3vDPD0Ekf-2" edge="1">
          <mxGeometry relative="1" as="geometry" />
        </mxCell>
        <mxCell id="0vl_ml9dGBKqO1DsII89-20" style="rounded=0;orthogonalLoop=1;jettySize=auto;html=1;entryX=0.5;entryY=0;entryDx=0;entryDy=0;endArrow=none;endFill=0;" parent="1" source="XNZ3zYuRLXU03UCSuWZl-1" target="0vl_ml9dGBKqO1DsII89-19" edge="1">
          <mxGeometry relative="1" as="geometry" />
        </mxCell>
        <mxCell id="AmkGwpUtt9LcvmTKhLFC-47" style="rounded=0;orthogonalLoop=1;jettySize=auto;html=1;entryX=0;entryY=0.5;entryDx=0;entryDy=0;endArrow=none;endFill=0;" parent="1" source="XNZ3zYuRLXU03UCSuWZl-1" target="0vl_ml9dGBKqO1DsII89-38" edge="1">
          <mxGeometry relative="1" as="geometry" />
        </mxCell>
        <mxCell id="AmkGwpUtt9LcvmTKhLFC-92" style="rounded=0;orthogonalLoop=1;jettySize=auto;html=1;entryX=0.5;entryY=0;entryDx=0;entryDy=0;endArrow=none;endFill=0;exitX=0;exitY=1;exitDx=0;exitDy=0;" parent="1" source="XNZ3zYuRLXU03UCSuWZl-1" target="0vl_ml9dGBKqO1DsII89-36" edge="1">
          <mxGeometry relative="1" as="geometry" />
        </mxCell>
        <mxCell id="AmkGwpUtt9LcvmTKhLFC-115" style="rounded=0;orthogonalLoop=1;jettySize=auto;html=1;entryX=1;entryY=0.5;entryDx=0;entryDy=0;endArrow=none;endFill=0;exitX=0;exitY=0.5;exitDx=0;exitDy=0;" parent="1" source="XNZ3zYuRLXU03UCSuWZl-1" target="0vl_ml9dGBKqO1DsII89-32" edge="1">
          <mxGeometry relative="1" as="geometry" />
        </mxCell>
        <mxCell id="AmkGwpUtt9LcvmTKhLFC-136" style="rounded=0;orthogonalLoop=1;jettySize=auto;html=1;entryX=0.5;entryY=1;entryDx=0;entryDy=0;endArrow=none;endFill=0;exitX=0.25;exitY=0;exitDx=0;exitDy=0;" parent="1" source="XNZ3zYuRLXU03UCSuWZl-1" target="0vl_ml9dGBKqO1DsII89-34" edge="1">
          <mxGeometry relative="1" as="geometry" />
        </mxCell>
        <mxCell id="AmkGwpUtt9LcvmTKhLFC-138" style="rounded=0;orthogonalLoop=1;jettySize=auto;html=1;entryX=1;entryY=0.5;entryDx=0;entryDy=0;endArrow=none;endFill=0;exitX=0;exitY=0.25;exitDx=0;exitDy=0;" parent="1" source="XNZ3zYuRLXU03UCSuWZl-1" target="0vl_ml9dGBKqO1DsII89-33" edge="1">
          <mxGeometry relative="1" as="geometry" />
        </mxCell>
        <mxCell id="AmkGwpUtt9LcvmTKhLFC-162" style="rounded=0;orthogonalLoop=1;jettySize=auto;html=1;entryX=0.5;entryY=1;entryDx=0;entryDy=0;endArrow=none;endFill=0;" parent="1" source="XNZ3zYuRLXU03UCSuWZl-1" target="0vl_ml9dGBKqO1DsII89-35" edge="1">
          <mxGeometry relative="1" as="geometry" />
        </mxCell>
        <mxCell id="AmkGwpUtt9LcvmTKhLFC-236" style="rounded=0;orthogonalLoop=1;jettySize=auto;html=1;entryX=0;entryY=0.5;entryDx=0;entryDy=0;endArrow=none;endFill=0;" parent="1" source="XNZ3zYuRLXU03UCSuWZl-1" target="AmkGwpUtt9LcvmTKhLFC-235" edge="1">
          <mxGeometry relative="1" as="geometry" />
        </mxCell>
        <mxCell id="XNZ3zYuRLXU03UCSuWZl-1" value="USER" style="rounded=0;whiteSpace=wrap;html=1;" parent="1" vertex="1">
          <mxGeometry x="60" y="680" width="120" height="60" as="geometry" />
        </mxCell>
        <mxCell id="0vl_ml9dGBKqO1DsII89-18" style="rounded=0;orthogonalLoop=1;jettySize=auto;html=1;entryX=0.5;entryY=1;entryDx=0;entryDy=0;exitX=0;exitY=0;exitDx=0;exitDy=0;endArrow=none;endFill=0;" parent="1" source="TWkLmpELnD5CYzsGqXO2-1" target="41yildZD4MA3vDPD0Ekf-3" edge="1">
          <mxGeometry relative="1" as="geometry" />
        </mxCell>
        <mxCell id="AmkGwpUtt9LcvmTKhLFC-238" style="rounded=0;orthogonalLoop=1;jettySize=auto;html=1;entryX=0.5;entryY=1;entryDx=0;entryDy=0;exitX=0.75;exitY=0;exitDx=0;exitDy=0;endArrow=none;endFill=0;" parent="1" source="TWkLmpELnD5CYzsGqXO2-1" target="AmkGwpUtt9LcvmTKhLFC-237" edge="1">
          <mxGeometry relative="1" as="geometry" />
        </mxCell>
        <mxCell id="TWkLmpELnD5CYzsGqXO2-1" value="ADMIN" style="rounded=0;whiteSpace=wrap;html=1;" parent="1" vertex="1">
          <mxGeometry x="700" y="680" width="120" height="60" as="geometry" />
        </mxCell>
        <mxCell id="0vl_ml9dGBKqO1DsII89-1" style="rounded=0;orthogonalLoop=1;jettySize=auto;html=1;entryX=0.5;entryY=0;entryDx=0;entryDy=0;endArrow=none;endFill=0;" parent="1" source="TWkLmpELnD5CYzsGqXO2-2" target="0vl_ml9dGBKqO1DsII89-2" edge="1">
          <mxGeometry relative="1" as="geometry">
            <mxPoint x="665" y="230" as="targetPoint" />
          </mxGeometry>
        </mxCell>
        <mxCell id="0vl_ml9dGBKqO1DsII89-13" style="rounded=0;orthogonalLoop=1;jettySize=auto;html=1;entryX=0;entryY=0.5;entryDx=0;entryDy=0;endArrow=none;endFill=0;exitX=1;exitY=0.25;exitDx=0;exitDy=0;" parent="1" source="TWkLmpELnD5CYzsGqXO2-2" target="_olEy-Z-6lNTrEM38_ys-7" edge="1">
          <mxGeometry relative="1" as="geometry" />
        </mxCell>
        <mxCell id="AmkGwpUtt9LcvmTKhLFC-176" style="rounded=0;orthogonalLoop=1;jettySize=auto;html=1;entryX=0.5;entryY=1;entryDx=0;entryDy=0;endArrow=none;endFill=0;exitX=0.25;exitY=0;exitDx=0;exitDy=0;" parent="1" source="TWkLmpELnD5CYzsGqXO2-2" target="0vl_ml9dGBKqO1DsII89-44" edge="1">
          <mxGeometry relative="1" as="geometry" />
        </mxCell>
        <mxCell id="TWkLmpELnD5CYzsGqXO2-2" value="REGISTERED_USER" style="rounded=0;whiteSpace=wrap;html=1;" parent="1" vertex="1">
          <mxGeometry x="375" y="130" width="130" height="60" as="geometry" />
        </mxCell>
        <mxCell id="AmkGwpUtt9LcvmTKhLFC-91" style="rounded=0;orthogonalLoop=1;jettySize=auto;html=1;entryX=0.5;entryY=1;entryDx=0;entryDy=0;endArrow=none;endFill=0;exitX=0.5;exitY=0;exitDx=0;exitDy=0;" parent="1" source="TWkLmpELnD5CYzsGqXO2-3" target="0vl_ml9dGBKqO1DsII89-36" edge="1">
          <mxGeometry relative="1" as="geometry" />
        </mxCell>
        <mxCell id="AmkGwpUtt9LcvmTKhLFC-104" style="rounded=0;orthogonalLoop=1;jettySize=auto;html=1;entryX=0.5;entryY=0;entryDx=0;entryDy=0;endArrow=none;endFill=0;exitX=0.5;exitY=1;exitDx=0;exitDy=0;" parent="1" source="TWkLmpELnD5CYzsGqXO2-3" target="AmkGwpUtt9LcvmTKhLFC-101" edge="1">
          <mxGeometry relative="1" as="geometry" />
        </mxCell>
        <mxCell id="AmkGwpUtt9LcvmTKhLFC-204" style="rounded=0;orthogonalLoop=1;jettySize=auto;html=1;entryX=0;entryY=0.5;entryDx=0;entryDy=0;endArrow=none;endFill=0;" parent="1" source="TWkLmpELnD5CYzsGqXO2-3" target="AmkGwpUtt9LcvmTKhLFC-202" edge="1">
          <mxGeometry relative="1" as="geometry" />
        </mxCell>
        <mxCell id="TWkLmpELnD5CYzsGqXO2-3" value="NUTRIONIST_BOOKING" style="rounded=0;whiteSpace=wrap;html=1;" parent="1" vertex="1">
          <mxGeometry x="-360" y="1060" width="180" height="60" as="geometry" />
        </mxCell>
        <mxCell id="AmkGwpUtt9LcvmTKhLFC-88" style="rounded=0;orthogonalLoop=1;jettySize=auto;html=1;entryX=0;entryY=0.5;entryDx=0;entryDy=0;endArrow=none;endFill=0;exitX=1;exitY=0.25;exitDx=0;exitDy=0;" parent="1" source="TxXE0V31lfUGrQ-oovAM-1" target="AmkGwpUtt9LcvmTKhLFC-86" edge="1">
          <mxGeometry relative="1" as="geometry" />
        </mxCell>
        <mxCell id="AmkGwpUtt9LcvmTKhLFC-89" style="rounded=0;orthogonalLoop=1;jettySize=auto;html=1;entryX=0.5;entryY=1;entryDx=0;entryDy=0;endArrow=none;endFill=0;" parent="1" source="TxXE0V31lfUGrQ-oovAM-1" target="AmkGwpUtt9LcvmTKhLFC-81" edge="1">
          <mxGeometry relative="1" as="geometry" />
        </mxCell>
        <mxCell id="TxXE0V31lfUGrQ-oovAM-1" value="NUTRIONIST" style="rounded=0;whiteSpace=wrap;html=1;" parent="1" vertex="1">
          <mxGeometry x="-670" y="1640" width="120" height="60" as="geometry" />
        </mxCell>
        <mxCell id="AmkGwpUtt9LcvmTKhLFC-57" style="rounded=0;orthogonalLoop=1;jettySize=auto;html=1;entryX=0.5;entryY=0;entryDx=0;entryDy=0;endArrow=none;endFill=0;" parent="1" source="C1i93S7AfEK_CjS4rVxK-1" target="0vl_ml9dGBKqO1DsII89-43" edge="1">
          <mxGeometry relative="1" as="geometry" />
        </mxCell>
        <mxCell id="C1i93S7AfEK_CjS4rVxK-1" value="INSTRUCTOR" style="rounded=0;whiteSpace=wrap;html=1;" parent="1" vertex="1">
          <mxGeometry x="1240" y="580" width="120" height="60" as="geometry" />
        </mxCell>
        <mxCell id="AmkGwpUtt9LcvmTKhLFC-46" style="rounded=0;orthogonalLoop=1;jettySize=auto;html=1;entryX=0;entryY=0.5;entryDx=0;entryDy=0;endArrow=none;endFill=0;exitX=0.75;exitY=1;exitDx=0;exitDy=0;" parent="1" source="W85gKqtLE7fSGm-5N2FF-1" target="AmkGwpUtt9LcvmTKhLFC-45" edge="1">
          <mxGeometry relative="1" as="geometry" />
        </mxCell>
        <mxCell id="AmkGwpUtt9LcvmTKhLFC-54" style="rounded=0;orthogonalLoop=1;jettySize=auto;html=1;entryX=0.5;entryY=1;entryDx=0;entryDy=0;endArrow=none;endFill=0;exitX=0.75;exitY=0;exitDx=0;exitDy=0;" parent="1" source="W85gKqtLE7fSGm-5N2FF-1" target="0vl_ml9dGBKqO1DsII89-42" edge="1">
          <mxGeometry relative="1" as="geometry" />
        </mxCell>
        <mxCell id="W85gKqtLE7fSGm-5N2FF-1" value="FITNESS_CLASS" style="rounded=0;whiteSpace=wrap;html=1;" parent="1" vertex="1">
          <mxGeometry x="1055" y="1460" width="120" height="60" as="geometry" />
        </mxCell>
        <mxCell id="AmkGwpUtt9LcvmTKhLFC-53" style="rounded=0;orthogonalLoop=1;jettySize=auto;html=1;entryX=0.5;entryY=0;entryDx=0;entryDy=0;endArrow=none;endFill=0;exitX=0.5;exitY=1;exitDx=0;exitDy=0;" parent="1" source="pswLXlgRhIOzRUMfWMuT-1" target="0vl_ml9dGBKqO1DsII89-42" edge="1">
          <mxGeometry relative="1" as="geometry" />
        </mxCell>
        <mxCell id="AmkGwpUtt9LcvmTKhLFC-58" style="rounded=0;orthogonalLoop=1;jettySize=auto;html=1;entryX=0.5;entryY=1;entryDx=0;entryDy=0;endArrow=none;endFill=0;" parent="1" source="pswLXlgRhIOzRUMfWMuT-1" target="0vl_ml9dGBKqO1DsII89-43" edge="1">
          <mxGeometry relative="1" as="geometry" />
        </mxCell>
        <mxCell id="AmkGwpUtt9LcvmTKhLFC-60" style="rounded=0;orthogonalLoop=1;jettySize=auto;html=1;entryX=0.5;entryY=1;entryDx=0;entryDy=0;endArrow=none;endFill=0;exitX=0.75;exitY=0;exitDx=0;exitDy=0;" parent="1" source="pswLXlgRhIOzRUMfWMuT-1" target="AmkGwpUtt9LcvmTKhLFC-59" edge="1">
          <mxGeometry relative="1" as="geometry" />
        </mxCell>
        <mxCell id="AmkGwpUtt9LcvmTKhLFC-63" style="rounded=0;orthogonalLoop=1;jettySize=auto;html=1;entryX=0;entryY=0.5;entryDx=0;entryDy=0;endArrow=none;endFill=0;exitX=1;exitY=0.75;exitDx=0;exitDy=0;" parent="1" source="pswLXlgRhIOzRUMfWMuT-1" target="AmkGwpUtt9LcvmTKhLFC-61" edge="1">
          <mxGeometry relative="1" as="geometry" />
        </mxCell>
        <mxCell id="pswLXlgRhIOzRUMfWMuT-1" value="FITNESS_CLASS_SCHEDULE" style="rounded=0;whiteSpace=wrap;html=1;" parent="1" vertex="1">
          <mxGeometry x="1270" y="980" width="200" height="60" as="geometry" />
        </mxCell>
        <mxCell id="AmkGwpUtt9LcvmTKhLFC-51" style="rounded=0;orthogonalLoop=1;jettySize=auto;html=1;entryX=0;entryY=0.5;entryDx=0;entryDy=0;endArrow=none;endFill=0;" parent="1" source="elJPMxUwocIPXj9SfTBA-1" target="0vl_ml9dGBKqO1DsII89-39" edge="1">
          <mxGeometry relative="1" as="geometry" />
        </mxCell>
        <mxCell id="AmkGwpUtt9LcvmTKhLFC-243" style="edgeStyle=orthogonalEdgeStyle;rounded=0;orthogonalLoop=1;jettySize=auto;html=1;entryX=0.5;entryY=0;entryDx=0;entryDy=0;endArrow=none;endFill=0;" parent="1" source="elJPMxUwocIPXj9SfTBA-1" target="AmkGwpUtt9LcvmTKhLFC-242" edge="1">
          <mxGeometry relative="1" as="geometry" />
        </mxCell>
        <mxCell id="elJPMxUwocIPXj9SfTBA-1" value="FITNESS_CLASS_BOOKING" style="rounded=0;whiteSpace=wrap;html=1;" parent="1" vertex="1">
          <mxGeometry x="750" y="920" width="200" height="60" as="geometry" />
        </mxCell>
        <mxCell id="CAGGtpWxBl3KJYStU8Ag-1" value="WEIGHT" style="rounded=0;whiteSpace=wrap;html=1;" parent="1" vertex="1">
          <mxGeometry x="-575" y="810" width="120" height="60" as="geometry" />
        </mxCell>
        <mxCell id="AmkGwpUtt9LcvmTKhLFC-140" style="rounded=0;orthogonalLoop=1;jettySize=auto;html=1;entryX=0;entryY=0.5;entryDx=0;entryDy=0;endArrow=none;endFill=0;" parent="1" source="xmJPe9lSXJA1enkUnFtX-2" target="0vl_ml9dGBKqO1DsII89-33" edge="1">
          <mxGeometry relative="1" as="geometry" />
        </mxCell>
        <mxCell id="AmkGwpUtt9LcvmTKhLFC-158" style="rounded=0;orthogonalLoop=1;jettySize=auto;html=1;entryX=0.5;entryY=1;entryDx=0;entryDy=0;endArrow=none;endFill=0;" parent="1" source="xmJPe9lSXJA1enkUnFtX-2" target="AmkGwpUtt9LcvmTKhLFC-147" edge="1">
          <mxGeometry relative="1" as="geometry" />
        </mxCell>
        <mxCell id="xmJPe9lSXJA1enkUnFtX-2" value="EXERCISE_ROUTINE" style="rounded=0;whiteSpace=wrap;html=1;" parent="1" vertex="1">
          <mxGeometry x="-780" y="600" width="180" height="60" as="geometry" />
        </mxCell>
        <mxCell id="AmkGwpUtt9LcvmTKhLFC-108" style="rounded=0;orthogonalLoop=1;jettySize=auto;html=1;entryX=0;entryY=0.5;entryDx=0;entryDy=0;endArrow=none;endFill=0;" parent="1" source="F4fDOVN2BI83f4sGxxk9-1" target="0vl_ml9dGBKqO1DsII89-31" edge="1">
          <mxGeometry relative="1" as="geometry" />
        </mxCell>
        <mxCell id="F4fDOVN2BI83f4sGxxk9-1" value="WATER_CONSUMPTION" style="rounded=0;whiteSpace=wrap;html=1;" parent="1" vertex="1">
          <mxGeometry x="-810" y="1020" width="180" height="60" as="geometry" />
        </mxCell>
        <mxCell id="AmkGwpUtt9LcvmTKhLFC-137" style="rounded=0;orthogonalLoop=1;jettySize=auto;html=1;entryX=0.5;entryY=0;entryDx=0;entryDy=0;endArrow=none;endFill=0;" parent="1" source="F4fDOVN2BI83f4sGxxk9-3" target="0vl_ml9dGBKqO1DsII89-34" edge="1">
          <mxGeometry relative="1" as="geometry" />
        </mxCell>
        <mxCell id="AmkGwpUtt9LcvmTKhLFC-160" style="rounded=0;orthogonalLoop=1;jettySize=auto;html=1;entryX=1;entryY=0.5;entryDx=0;entryDy=0;endArrow=none;endFill=0;" parent="1" source="F4fDOVN2BI83f4sGxxk9-3" target="AmkGwpUtt9LcvmTKhLFC-144" edge="1">
          <mxGeometry relative="1" as="geometry" />
        </mxCell>
        <mxCell id="F4fDOVN2BI83f4sGxxk9-3" value="EXERCISE" style="rounded=0;whiteSpace=wrap;html=1;" parent="1" vertex="1">
          <mxGeometry x="-465" y="240" width="120" height="60" as="geometry" />
        </mxCell>
        <mxCell id="AmkGwpUtt9LcvmTKhLFC-171" style="rounded=0;orthogonalLoop=1;jettySize=auto;html=1;entryX=0.5;entryY=0;entryDx=0;entryDy=0;endArrow=none;endFill=0;exitX=0;exitY=1;exitDx=0;exitDy=0;" parent="1" source="yqMjIGPSeMZzKxb6o4rF-1" target="AmkGwpUtt9LcvmTKhLFC-169" edge="1">
          <mxGeometry relative="1" as="geometry" />
        </mxCell>
        <mxCell id="AmkGwpUtt9LcvmTKhLFC-175" style="rounded=0;orthogonalLoop=1;jettySize=auto;html=1;entryX=0.5;entryY=0;entryDx=0;entryDy=0;endArrow=none;endFill=0;" parent="1" source="yqMjIGPSeMZzKxb6o4rF-1" target="0vl_ml9dGBKqO1DsII89-44" edge="1">
          <mxGeometry relative="1" as="geometry" />
        </mxCell>
        <mxCell id="yqMjIGPSeMZzKxb6o4rF-1" value="COMMENT" style="rounded=0;whiteSpace=wrap;html=1;" parent="1" vertex="1">
          <mxGeometry x="160" y="-310" width="120" height="60" as="geometry" />
        </mxCell>
        <mxCell id="AmkGwpUtt9LcvmTKhLFC-170" style="rounded=0;orthogonalLoop=1;jettySize=auto;html=1;entryX=0.5;entryY=1;entryDx=0;entryDy=0;endArrow=none;endFill=0;exitX=1;exitY=0;exitDx=0;exitDy=0;" parent="1" source="yqMjIGPSeMZzKxb6o4rF-2" target="AmkGwpUtt9LcvmTKhLFC-169" edge="1">
          <mxGeometry relative="1" as="geometry" />
        </mxCell>
        <mxCell id="yqMjIGPSeMZzKxb6o4rF-2" value="FEEDBACK" style="rounded=0;whiteSpace=wrap;html=1;" parent="1" vertex="1">
          <mxGeometry x="-225" y="-120" width="120" height="60" as="geometry" />
        </mxCell>
        <mxCell id="0vl_ml9dGBKqO1DsII89-7" style="rounded=0;orthogonalLoop=1;jettySize=auto;html=1;entryX=0.25;entryY=1;entryDx=0;entryDy=0;endArrow=none;endFill=0;" parent="1" source="41yildZD4MA3vDPD0Ekf-1" target="TWkLmpELnD5CYzsGqXO2-2" edge="1">
          <mxGeometry relative="1" as="geometry" />
        </mxCell>
        <mxCell id="41yildZD4MA3vDPD0Ekf-1" value="&lt;u&gt;registeredUserID&lt;/u&gt;" style="ellipse;whiteSpace=wrap;html=1;" parent="1" vertex="1">
          <mxGeometry x="210" y="290" width="150" height="60" as="geometry" />
        </mxCell>
        <mxCell id="41yildZD4MA3vDPD0Ekf-2" value="&lt;u&gt;userID&lt;/u&gt;" style="ellipse;whiteSpace=wrap;html=1;" parent="1" vertex="1">
          <mxGeometry x="239.73" y="570" width="150" height="60" as="geometry" />
        </mxCell>
        <mxCell id="41yildZD4MA3vDPD0Ekf-3" value="&lt;u&gt;adminID&lt;/u&gt;" style="ellipse;whiteSpace=wrap;html=1;" parent="1" vertex="1">
          <mxGeometry x="489.46" y="570" width="150" height="60" as="geometry" />
        </mxCell>
        <mxCell id="0vl_ml9dGBKqO1DsII89-9" style="rounded=0;orthogonalLoop=1;jettySize=auto;html=1;entryX=0;entryY=0.5;entryDx=0;entryDy=0;endArrow=none;endFill=0;" parent="1" source="41yildZD4MA3vDPD0Ekf-4" target="TWkLmpELnD5CYzsGqXO2-2" edge="1">
          <mxGeometry relative="1" as="geometry" />
        </mxCell>
        <mxCell id="41yildZD4MA3vDPD0Ekf-4" value="lastName" style="ellipse;whiteSpace=wrap;html=1;" parent="1" vertex="1">
          <mxGeometry x="50" y="130" width="150" height="60" as="geometry" />
        </mxCell>
        <mxCell id="0vl_ml9dGBKqO1DsII89-8" style="rounded=0;orthogonalLoop=1;jettySize=auto;html=1;entryX=0;entryY=1;entryDx=0;entryDy=0;endArrow=none;endFill=0;exitX=1;exitY=0;exitDx=0;exitDy=0;" parent="1" source="_olEy-Z-6lNTrEM38_ys-1" target="TWkLmpELnD5CYzsGqXO2-2" edge="1">
          <mxGeometry relative="1" as="geometry" />
        </mxCell>
        <mxCell id="_olEy-Z-6lNTrEM38_ys-1" value="firstName" style="ellipse;whiteSpace=wrap;html=1;" parent="1" vertex="1">
          <mxGeometry x="130" y="210" width="150" height="60" as="geometry" />
        </mxCell>
        <mxCell id="0vl_ml9dGBKqO1DsII89-10" style="rounded=0;orthogonalLoop=1;jettySize=auto;html=1;entryX=0;entryY=0;entryDx=0;entryDy=0;endArrow=none;endFill=0;exitX=1;exitY=1;exitDx=0;exitDy=0;" parent="1" source="_olEy-Z-6lNTrEM38_ys-2" target="TWkLmpELnD5CYzsGqXO2-2" edge="1">
          <mxGeometry relative="1" as="geometry" />
        </mxCell>
        <mxCell id="_olEy-Z-6lNTrEM38_ys-2" value="username" style="ellipse;whiteSpace=wrap;html=1;" parent="1" vertex="1">
          <mxGeometry x="130" y="50" width="150" height="60" as="geometry" />
        </mxCell>
        <mxCell id="0vl_ml9dGBKqO1DsII89-15" style="rounded=0;orthogonalLoop=1;jettySize=auto;html=1;entryX=0.5;entryY=0;entryDx=0;entryDy=0;endArrow=none;endFill=0;" parent="1" source="_olEy-Z-6lNTrEM38_ys-3" target="TWkLmpELnD5CYzsGqXO2-2" edge="1">
          <mxGeometry relative="1" as="geometry" />
        </mxCell>
        <mxCell id="_olEy-Z-6lNTrEM38_ys-3" value="password" style="ellipse;whiteSpace=wrap;html=1;" parent="1" vertex="1">
          <mxGeometry x="365" y="-10" width="150" height="60" as="geometry" />
        </mxCell>
        <mxCell id="0vl_ml9dGBKqO1DsII89-14" style="rounded=0;orthogonalLoop=1;jettySize=auto;html=1;entryX=0.75;entryY=0;entryDx=0;entryDy=0;endArrow=none;endFill=0;exitX=0;exitY=1;exitDx=0;exitDy=0;" parent="1" source="_olEy-Z-6lNTrEM38_ys-6" target="TWkLmpELnD5CYzsGqXO2-2" edge="1">
          <mxGeometry relative="1" as="geometry" />
        </mxCell>
        <mxCell id="_olEy-Z-6lNTrEM38_ys-6" value="email" style="ellipse;whiteSpace=wrap;html=1;" parent="1" vertex="1">
          <mxGeometry x="550" y="20" width="150" height="60" as="geometry" />
        </mxCell>
        <mxCell id="_olEy-Z-6lNTrEM38_ys-7" value="phoneNo" style="ellipse;whiteSpace=wrap;html=1;" parent="1" vertex="1">
          <mxGeometry x="660" y="90" width="150" height="60" as="geometry" />
        </mxCell>
        <mxCell id="0vl_ml9dGBKqO1DsII89-12" style="rounded=0;orthogonalLoop=1;jettySize=auto;html=1;endArrow=none;endFill=0;exitX=0;exitY=0.5;exitDx=0;exitDy=0;entryX=1;entryY=0.5;entryDx=0;entryDy=0;" parent="1" source="_olEy-Z-6lNTrEM38_ys-8" target="TWkLmpELnD5CYzsGqXO2-2" edge="1">
          <mxGeometry relative="1" as="geometry">
            <mxPoint x="510" y="167" as="targetPoint" />
          </mxGeometry>
        </mxCell>
        <mxCell id="_olEy-Z-6lNTrEM38_ys-8" value="gender" style="ellipse;whiteSpace=wrap;html=1;" parent="1" vertex="1">
          <mxGeometry x="639.46" y="170" width="150" height="60" as="geometry" />
        </mxCell>
        <mxCell id="AmkGwpUtt9LcvmTKhLFC-41" style="rounded=0;orthogonalLoop=1;jettySize=auto;html=1;entryX=0;entryY=0.5;entryDx=0;entryDy=0;endArrow=none;endFill=0;exitX=0.5;exitY=1;exitDx=0;exitDy=0;" parent="1" source="_olEy-Z-6lNTrEM38_ys-11" target="0vl_ml9dGBKqO1DsII89-40" edge="1">
          <mxGeometry relative="1" as="geometry" />
        </mxCell>
        <mxCell id="_olEy-Z-6lNTrEM38_ys-11" value="FITNESS_CLASS_SUBSCRIPTION" style="rounded=0;whiteSpace=wrap;html=1;" parent="1" vertex="1">
          <mxGeometry x="660" y="1250" width="200" height="60" as="geometry" />
        </mxCell>
        <mxCell id="0vl_ml9dGBKqO1DsII89-26" style="rounded=0;orthogonalLoop=1;jettySize=auto;html=1;entryX=0.5;entryY=1;entryDx=0;entryDy=0;endArrow=none;endFill=0;" parent="1" source="_olEy-Z-6lNTrEM38_ys-13" target="0vl_ml9dGBKqO1DsII89-22" edge="1">
          <mxGeometry relative="1" as="geometry" />
        </mxCell>
        <mxCell id="_olEy-Z-6lNTrEM38_ys-13" value="MEMBERSHIP" style="rounded=0;whiteSpace=wrap;html=1;" parent="1" vertex="1">
          <mxGeometry x="169.73000000000005" y="1690" width="120" height="60" as="geometry" />
        </mxCell>
        <mxCell id="0vl_ml9dGBKqO1DsII89-27" style="rounded=0;orthogonalLoop=1;jettySize=auto;html=1;entryX=0.5;entryY=0;entryDx=0;entryDy=0;endArrow=none;endFill=0;" parent="1" source="_olEy-Z-6lNTrEM38_ys-18" target="0vl_ml9dGBKqO1DsII89-22" edge="1">
          <mxGeometry relative="1" as="geometry" />
        </mxCell>
        <mxCell id="_olEy-Z-6lNTrEM38_ys-18" value="MEMBERSHIP_SUBSCRIPTION" style="rounded=0;whiteSpace=wrap;html=1;" parent="1" vertex="1">
          <mxGeometry x="141.19" y="1350" width="180" height="60" as="geometry" />
        </mxCell>
        <mxCell id="AmkGwpUtt9LcvmTKhLFC-66" style="rounded=0;orthogonalLoop=1;jettySize=auto;html=1;entryX=0;entryY=1;entryDx=0;entryDy=0;endArrow=none;endFill=0;exitX=1;exitY=0;exitDx=0;exitDy=0;" parent="1" source="_olEy-Z-6lNTrEM38_ys-19" target="C1i93S7AfEK_CjS4rVxK-1" edge="1">
          <mxGeometry relative="1" as="geometry" />
        </mxCell>
        <mxCell id="_olEy-Z-6lNTrEM38_ys-19" value="&lt;u&gt;instructorID&lt;/u&gt;" style="ellipse;whiteSpace=wrap;html=1;" parent="1" vertex="1">
          <mxGeometry x="1030" y="670" width="150" height="60" as="geometry" />
        </mxCell>
        <mxCell id="AmkGwpUtt9LcvmTKhLFC-68" style="rounded=0;orthogonalLoop=1;jettySize=auto;html=1;entryX=0;entryY=0;entryDx=0;entryDy=0;endArrow=none;endFill=0;" parent="1" source="_olEy-Z-6lNTrEM38_ys-20" target="C1i93S7AfEK_CjS4rVxK-1" edge="1">
          <mxGeometry relative="1" as="geometry" />
        </mxCell>
        <mxCell id="_olEy-Z-6lNTrEM38_ys-20" value="lastName" style="ellipse;whiteSpace=wrap;html=1;" parent="1" vertex="1">
          <mxGeometry x="1030" y="467" width="150" height="60" as="geometry" />
        </mxCell>
        <mxCell id="AmkGwpUtt9LcvmTKhLFC-67" style="rounded=0;orthogonalLoop=1;jettySize=auto;html=1;entryX=0;entryY=0.5;entryDx=0;entryDy=0;endArrow=none;endFill=0;" parent="1" source="_olEy-Z-6lNTrEM38_ys-21" target="C1i93S7AfEK_CjS4rVxK-1" edge="1">
          <mxGeometry relative="1" as="geometry" />
        </mxCell>
        <mxCell id="_olEy-Z-6lNTrEM38_ys-21" value="firstName" style="ellipse;whiteSpace=wrap;html=1;" parent="1" vertex="1">
          <mxGeometry x="1020" y="580" width="150" height="60" as="geometry" />
        </mxCell>
        <mxCell id="AmkGwpUtt9LcvmTKhLFC-69" style="rounded=0;orthogonalLoop=1;jettySize=auto;html=1;entryX=0.5;entryY=0;entryDx=0;entryDy=0;endArrow=none;endFill=0;" parent="1" source="_olEy-Z-6lNTrEM38_ys-22" target="C1i93S7AfEK_CjS4rVxK-1" edge="1">
          <mxGeometry relative="1" as="geometry" />
        </mxCell>
        <mxCell id="_olEy-Z-6lNTrEM38_ys-22" value="email" style="ellipse;whiteSpace=wrap;html=1;" parent="1" vertex="1">
          <mxGeometry x="1225" y="440" width="150" height="60" as="geometry" />
        </mxCell>
        <mxCell id="AmkGwpUtt9LcvmTKhLFC-70" style="rounded=0;orthogonalLoop=1;jettySize=auto;html=1;entryX=1;entryY=0.25;entryDx=0;entryDy=0;endArrow=none;endFill=0;" parent="1" source="_olEy-Z-6lNTrEM38_ys-23" target="C1i93S7AfEK_CjS4rVxK-1" edge="1">
          <mxGeometry relative="1" as="geometry" />
        </mxCell>
        <mxCell id="_olEy-Z-6lNTrEM38_ys-23" value="phoneNo" style="ellipse;whiteSpace=wrap;html=1;" parent="1" vertex="1">
          <mxGeometry x="1410" y="467" width="150" height="60" as="geometry" />
        </mxCell>
        <mxCell id="AmkGwpUtt9LcvmTKhLFC-71" style="rounded=0;orthogonalLoop=1;jettySize=auto;html=1;entryX=1;entryY=0.5;entryDx=0;entryDy=0;endArrow=none;endFill=0;exitX=0;exitY=0.5;exitDx=0;exitDy=0;" parent="1" source="_olEy-Z-6lNTrEM38_ys-24" target="C1i93S7AfEK_CjS4rVxK-1" edge="1">
          <mxGeometry relative="1" as="geometry" />
        </mxCell>
        <mxCell id="_olEy-Z-6lNTrEM38_ys-24" value="gender" style="ellipse;whiteSpace=wrap;html=1;" parent="1" vertex="1">
          <mxGeometry x="1410" y="580" width="150" height="60" as="geometry" />
        </mxCell>
        <mxCell id="AmkGwpUtt9LcvmTKhLFC-75" style="rounded=0;orthogonalLoop=1;jettySize=auto;html=1;entryX=0;entryY=0.5;entryDx=0;entryDy=0;endArrow=none;endFill=0;exitX=1;exitY=1;exitDx=0;exitDy=0;" parent="1" source="_olEy-Z-6lNTrEM38_ys-25" target="TxXE0V31lfUGrQ-oovAM-1" edge="1">
          <mxGeometry relative="1" as="geometry" />
        </mxCell>
        <mxCell id="_olEy-Z-6lNTrEM38_ys-25" value="&lt;u&gt;nutrionistID&lt;/u&gt;" style="ellipse;whiteSpace=wrap;html=1;" parent="1" vertex="1">
          <mxGeometry x="-890" y="1569" width="150" height="60" as="geometry" />
        </mxCell>
        <mxCell id="AmkGwpUtt9LcvmTKhLFC-77" style="rounded=0;orthogonalLoop=1;jettySize=auto;html=1;entryX=0;entryY=1;entryDx=0;entryDy=0;endArrow=none;endFill=0;" parent="1" source="_olEy-Z-6lNTrEM38_ys-26" target="TxXE0V31lfUGrQ-oovAM-1" edge="1">
          <mxGeometry relative="1" as="geometry" />
        </mxCell>
        <mxCell id="_olEy-Z-6lNTrEM38_ys-26" value="lastName" style="ellipse;whiteSpace=wrap;html=1;" parent="1" vertex="1">
          <mxGeometry x="-890" y="1710" width="150" height="60" as="geometry" />
        </mxCell>
        <mxCell id="AmkGwpUtt9LcvmTKhLFC-76" style="rounded=0;orthogonalLoop=1;jettySize=auto;html=1;entryX=0;entryY=0.75;entryDx=0;entryDy=0;endArrow=none;endFill=0;" parent="1" source="_olEy-Z-6lNTrEM38_ys-27" target="TxXE0V31lfUGrQ-oovAM-1" edge="1">
          <mxGeometry relative="1" as="geometry" />
        </mxCell>
        <mxCell id="_olEy-Z-6lNTrEM38_ys-27" value="firstName" style="ellipse;whiteSpace=wrap;html=1;" parent="1" vertex="1">
          <mxGeometry x="-890" y="1640" width="150" height="60" as="geometry" />
        </mxCell>
        <mxCell id="AmkGwpUtt9LcvmTKhLFC-80" style="rounded=0;orthogonalLoop=1;jettySize=auto;html=1;entryX=0.75;entryY=1;entryDx=0;entryDy=0;endArrow=none;endFill=0;" parent="1" source="_olEy-Z-6lNTrEM38_ys-28" target="TxXE0V31lfUGrQ-oovAM-1" edge="1">
          <mxGeometry relative="1" as="geometry" />
        </mxCell>
        <mxCell id="_olEy-Z-6lNTrEM38_ys-28" value="email" style="ellipse;whiteSpace=wrap;html=1;" parent="1" vertex="1">
          <mxGeometry x="-610" y="1810" width="150" height="60" as="geometry" />
        </mxCell>
        <mxCell id="AmkGwpUtt9LcvmTKhLFC-79" style="rounded=0;orthogonalLoop=1;jettySize=auto;html=1;entryX=1;entryY=1;entryDx=0;entryDy=0;endArrow=none;endFill=0;exitX=0;exitY=0;exitDx=0;exitDy=0;" parent="1" source="_olEy-Z-6lNTrEM38_ys-29" target="TxXE0V31lfUGrQ-oovAM-1" edge="1">
          <mxGeometry relative="1" as="geometry" />
        </mxCell>
        <mxCell id="_olEy-Z-6lNTrEM38_ys-29" value="phoneNo" style="ellipse;whiteSpace=wrap;html=1;" parent="1" vertex="1">
          <mxGeometry x="-495" y="1760" width="150" height="60" as="geometry" />
        </mxCell>
        <mxCell id="2TvaYJTs-SckbT52ZaIm-12" style="rounded=0;orthogonalLoop=1;jettySize=auto;html=1;entryX=0.25;entryY=1;entryDx=0;entryDy=0;endArrow=none;endFill=0;exitX=1;exitY=0;exitDx=0;exitDy=0;" edge="1" parent="1" source="_olEy-Z-6lNTrEM38_ys-30" target="TxXE0V31lfUGrQ-oovAM-1">
          <mxGeometry relative="1" as="geometry" />
        </mxCell>
        <mxCell id="_olEy-Z-6lNTrEM38_ys-30" value="gender" style="ellipse;whiteSpace=wrap;html=1;" parent="1" vertex="1">
          <mxGeometry x="-840" y="1780" width="150" height="60" as="geometry" />
        </mxCell>
        <mxCell id="AmkGwpUtt9LcvmTKhLFC-28" style="rounded=0;orthogonalLoop=1;jettySize=auto;html=1;entryX=0;entryY=0.5;entryDx=0;entryDy=0;endArrow=none;endFill=0;" parent="1" source="_olEy-Z-6lNTrEM38_ys-32" target="_olEy-Z-6lNTrEM38_ys-13" edge="1">
          <mxGeometry relative="1" as="geometry" />
        </mxCell>
        <mxCell id="_olEy-Z-6lNTrEM38_ys-32" value="&lt;u&gt;membershipID&lt;/u&gt;" style="ellipse;whiteSpace=wrap;html=1;" parent="1" vertex="1">
          <mxGeometry x="-45" y="1690" width="150" height="60" as="geometry" />
        </mxCell>
        <mxCell id="AmkGwpUtt9LcvmTKhLFC-29" style="rounded=0;orthogonalLoop=1;jettySize=auto;html=1;entryX=1;entryY=0.5;entryDx=0;entryDy=0;endArrow=none;endFill=0;" parent="1" source="_olEy-Z-6lNTrEM38_ys-33" target="_olEy-Z-6lNTrEM38_ys-13" edge="1">
          <mxGeometry relative="1" as="geometry" />
        </mxCell>
        <mxCell id="_olEy-Z-6lNTrEM38_ys-33" value="price" style="ellipse;whiteSpace=wrap;html=1;" parent="1" vertex="1">
          <mxGeometry x="340" y="1690" width="150" height="60" as="geometry" />
        </mxCell>
        <mxCell id="AmkGwpUtt9LcvmTKhLFC-30" style="rounded=0;orthogonalLoop=1;jettySize=auto;html=1;entryX=0.75;entryY=1;entryDx=0;entryDy=0;endArrow=none;endFill=0;" parent="1" source="_olEy-Z-6lNTrEM38_ys-34" target="_olEy-Z-6lNTrEM38_ys-13" edge="1">
          <mxGeometry relative="1" as="geometry" />
        </mxCell>
        <mxCell id="_olEy-Z-6lNTrEM38_ys-34" value="type" style="ellipse;whiteSpace=wrap;html=1;" parent="1" vertex="1">
          <mxGeometry x="249.99999999999997" y="1800" width="150" height="60" as="geometry" />
        </mxCell>
        <mxCell id="0vl_ml9dGBKqO1DsII89-11" style="rounded=0;orthogonalLoop=1;jettySize=auto;html=1;entryX=1;entryY=1;entryDx=0;entryDy=0;endArrow=none;endFill=0;exitX=0;exitY=0;exitDx=0;exitDy=0;" parent="1" source="_olEy-Z-6lNTrEM38_ys-35" target="TWkLmpELnD5CYzsGqXO2-2" edge="1">
          <mxGeometry relative="1" as="geometry" />
        </mxCell>
        <mxCell id="_olEy-Z-6lNTrEM38_ys-35" value="dateOfBirth" style="ellipse;whiteSpace=wrap;html=1;" parent="1" vertex="1">
          <mxGeometry x="585" y="255" width="150" height="60" as="geometry" />
        </mxCell>
        <mxCell id="AmkGwpUtt9LcvmTKhLFC-43" style="rounded=0;orthogonalLoop=1;jettySize=auto;html=1;entryX=0;entryY=0.5;entryDx=0;entryDy=0;endArrow=none;endFill=0;" parent="1" source="_olEy-Z-6lNTrEM38_ys-37" target="W85gKqtLE7fSGm-5N2FF-1" edge="1">
          <mxGeometry relative="1" as="geometry" />
        </mxCell>
        <mxCell id="_olEy-Z-6lNTrEM38_ys-37" value="&lt;u&gt;fitnessClassID&lt;/u&gt;" style="ellipse;whiteSpace=wrap;html=1;" parent="1" vertex="1">
          <mxGeometry x="850" y="1460" width="150" height="60" as="geometry" />
        </mxCell>
        <mxCell id="AmkGwpUtt9LcvmTKhLFC-44" style="rounded=0;orthogonalLoop=1;jettySize=auto;html=1;entryX=0.25;entryY=1;entryDx=0;entryDy=0;endArrow=none;endFill=0;exitX=1;exitY=0;exitDx=0;exitDy=0;" parent="1" source="_olEy-Z-6lNTrEM38_ys-38" target="W85gKqtLE7fSGm-5N2FF-1" edge="1">
          <mxGeometry relative="1" as="geometry" />
        </mxCell>
        <mxCell id="_olEy-Z-6lNTrEM38_ys-38" value="name" style="ellipse;whiteSpace=wrap;html=1;" parent="1" vertex="1">
          <mxGeometry x="920" y="1540" width="150" height="60" as="geometry" />
        </mxCell>
        <mxCell id="AmkGwpUtt9LcvmTKhLFC-148" style="rounded=0;orthogonalLoop=1;jettySize=auto;html=1;entryX=0;entryY=0;entryDx=0;entryDy=0;endArrow=none;endFill=0;exitX=1;exitY=1;exitDx=0;exitDy=0;" parent="1" source="_olEy-Z-6lNTrEM38_ys-39" target="F4fDOVN2BI83f4sGxxk9-3" edge="1">
          <mxGeometry relative="1" as="geometry" />
        </mxCell>
        <mxCell id="_olEy-Z-6lNTrEM38_ys-39" value="&lt;u&gt;exerciseID&lt;/u&gt;" style="ellipse;whiteSpace=wrap;html=1;" parent="1" vertex="1">
          <mxGeometry x="-660" y="130" width="150" height="60" as="geometry" />
        </mxCell>
        <mxCell id="AmkGwpUtt9LcvmTKhLFC-149" style="rounded=0;orthogonalLoop=1;jettySize=auto;html=1;entryX=0.5;entryY=0;entryDx=0;entryDy=0;endArrow=none;endFill=0;" parent="1" source="_olEy-Z-6lNTrEM38_ys-41" target="F4fDOVN2BI83f4sGxxk9-3" edge="1">
          <mxGeometry relative="1" as="geometry" />
        </mxCell>
        <mxCell id="_olEy-Z-6lNTrEM38_ys-41" value="name" style="ellipse;whiteSpace=wrap;html=1;" parent="1" vertex="1">
          <mxGeometry x="-480" y="90" width="150" height="60" as="geometry" />
        </mxCell>
        <mxCell id="AmkGwpUtt9LcvmTKhLFC-168" style="rounded=0;orthogonalLoop=1;jettySize=auto;html=1;entryX=0.5;entryY=0;entryDx=0;entryDy=0;endArrow=none;endFill=0;" parent="1" source="_olEy-Z-6lNTrEM38_ys-42" target="yqMjIGPSeMZzKxb6o4rF-2" edge="1">
          <mxGeometry relative="1" as="geometry" />
        </mxCell>
        <mxCell id="_olEy-Z-6lNTrEM38_ys-42" value="&lt;u&gt;feedbackID&lt;/u&gt;" style="ellipse;whiteSpace=wrap;html=1;" parent="1" vertex="1">
          <mxGeometry x="-320" y="-230" width="150" height="60" as="geometry" />
        </mxCell>
        <mxCell id="AmkGwpUtt9LcvmTKhLFC-177" style="rounded=0;orthogonalLoop=1;jettySize=auto;html=1;entryX=0.25;entryY=0;entryDx=0;entryDy=0;endArrow=none;endFill=0;" parent="1" source="_olEy-Z-6lNTrEM38_ys-43" target="yqMjIGPSeMZzKxb6o4rF-1" edge="1">
          <mxGeometry relative="1" as="geometry" />
        </mxCell>
        <mxCell id="_olEy-Z-6lNTrEM38_ys-43" value="&lt;u&gt;commentID&lt;/u&gt;" style="ellipse;whiteSpace=wrap;html=1;" parent="1" vertex="1">
          <mxGeometry x="-55" y="-420" width="150" height="60" as="geometry" />
        </mxCell>
        <mxCell id="0vl_ml9dGBKqO1DsII89-3" style="rounded=0;orthogonalLoop=1;jettySize=auto;html=1;entryX=0.5;entryY=0;entryDx=0;entryDy=0;endArrow=none;endFill=0;" parent="1" source="0vl_ml9dGBKqO1DsII89-2" target="XNZ3zYuRLXU03UCSuWZl-1" edge="1">
          <mxGeometry relative="1" as="geometry" />
        </mxCell>
        <mxCell id="0vl_ml9dGBKqO1DsII89-4" style="rounded=0;orthogonalLoop=1;jettySize=auto;html=1;entryX=0.5;entryY=0;entryDx=0;entryDy=0;endArrow=none;endFill=0;" parent="1" source="0vl_ml9dGBKqO1DsII89-2" target="TWkLmpELnD5CYzsGqXO2-1" edge="1">
          <mxGeometry relative="1" as="geometry" />
        </mxCell>
        <mxCell id="0vl_ml9dGBKqO1DsII89-2" value="o" style="ellipse;whiteSpace=wrap;html=1;aspect=fixed;" parent="1" vertex="1">
          <mxGeometry x="420" y="390" width="40" height="40" as="geometry" />
        </mxCell>
        <mxCell id="0vl_ml9dGBKqO1DsII89-5" value="" style="shape=requiredInterface;html=1;verticalLabelPosition=bottom;sketch=0;rotation=-212;" parent="1" vertex="1">
          <mxGeometry x="371.19000000000005" y="450" width="18.54" height="20" as="geometry" />
        </mxCell>
        <mxCell id="0vl_ml9dGBKqO1DsII89-6" value="" style="shape=requiredInterface;html=1;verticalLabelPosition=bottom;sketch=0;rotation=45;" parent="1" vertex="1">
          <mxGeometry x="488.46" y="447" width="18.54" height="20" as="geometry" />
        </mxCell>
        <mxCell id="AmkGwpUtt9LcvmTKhLFC-17" style="rounded=0;orthogonalLoop=1;jettySize=auto;html=1;entryX=0.5;entryY=0;entryDx=0;entryDy=0;endArrow=none;endFill=0;exitX=0.5;exitY=1;exitDx=0;exitDy=0;" parent="1" source="0vl_ml9dGBKqO1DsII89-19" target="AmkGwpUtt9LcvmTKhLFC-7" edge="1">
          <mxGeometry relative="1" as="geometry" />
        </mxCell>
        <mxCell id="0vl_ml9dGBKqO1DsII89-19" value="HAS" style="rhombus;whiteSpace=wrap;html=1;" parent="1" vertex="1">
          <mxGeometry x="150" y="800" width="80" height="80" as="geometry" />
        </mxCell>
        <mxCell id="0vl_ml9dGBKqO1DsII89-22" value="HAS" style="rhombus;whiteSpace=wrap;html=1;" parent="1" vertex="1">
          <mxGeometry x="189.73" y="1520" width="80" height="80" as="geometry" />
        </mxCell>
        <mxCell id="AmkGwpUtt9LcvmTKhLFC-107" style="rounded=0;orthogonalLoop=1;jettySize=auto;html=1;endArrow=none;endFill=0;exitX=1;exitY=0.5;exitDx=0;exitDy=0;entryX=0;entryY=0.75;entryDx=0;entryDy=0;" parent="1" source="0vl_ml9dGBKqO1DsII89-31" target="XNZ3zYuRLXU03UCSuWZl-1" edge="1">
          <mxGeometry relative="1" as="geometry">
            <mxPoint x="60" y="710" as="targetPoint" />
          </mxGeometry>
        </mxCell>
        <mxCell id="0vl_ml9dGBKqO1DsII89-31" value="RECORD" style="rhombus;whiteSpace=wrap;html=1;" parent="1" vertex="1">
          <mxGeometry x="-510" y="950" width="80" height="80" as="geometry" />
        </mxCell>
        <mxCell id="AmkGwpUtt9LcvmTKhLFC-116" style="rounded=0;orthogonalLoop=1;jettySize=auto;html=1;entryX=1;entryY=0.5;entryDx=0;entryDy=0;endArrow=none;endFill=0;exitX=0;exitY=0.5;exitDx=0;exitDy=0;" parent="1" source="0vl_ml9dGBKqO1DsII89-32" target="CAGGtpWxBl3KJYStU8Ag-1" edge="1">
          <mxGeometry relative="1" as="geometry" />
        </mxCell>
        <mxCell id="0vl_ml9dGBKqO1DsII89-32" value="RECORD" style="rhombus;whiteSpace=wrap;html=1;" parent="1" vertex="1">
          <mxGeometry x="-360" y="760" width="80" height="80" as="geometry" />
        </mxCell>
        <mxCell id="0vl_ml9dGBKqO1DsII89-33" value="RECORD" style="rhombus;whiteSpace=wrap;html=1;" parent="1" vertex="1">
          <mxGeometry x="-330" y="660" width="80" height="80" as="geometry" />
        </mxCell>
        <mxCell id="0vl_ml9dGBKqO1DsII89-34" value="CREATE" style="rhombus;whiteSpace=wrap;html=1;" parent="1" vertex="1">
          <mxGeometry x="-310" y="430" width="80" height="80" as="geometry" />
        </mxCell>
        <mxCell id="AmkGwpUtt9LcvmTKhLFC-165" style="rounded=0;orthogonalLoop=1;jettySize=auto;html=1;entryX=0.5;entryY=1;entryDx=0;entryDy=0;endArrow=none;endFill=0;exitX=0.5;exitY=0;exitDx=0;exitDy=0;" parent="1" source="0vl_ml9dGBKqO1DsII89-35" target="yqMjIGPSeMZzKxb6o4rF-2" edge="1">
          <mxGeometry relative="1" as="geometry" />
        </mxCell>
        <mxCell id="0vl_ml9dGBKqO1DsII89-35" value="CREATE" style="rhombus;whiteSpace=wrap;html=1;" parent="1" vertex="1">
          <mxGeometry x="-100" y="170" width="80" height="80" as="geometry" />
        </mxCell>
        <mxCell id="0vl_ml9dGBKqO1DsII89-36" value="MAKE" style="rhombus;whiteSpace=wrap;html=1;" parent="1" vertex="1">
          <mxGeometry x="-170" y="900" width="80" height="80" as="geometry" />
        </mxCell>
        <mxCell id="AmkGwpUtt9LcvmTKhLFC-34" style="rounded=0;orthogonalLoop=1;jettySize=auto;html=1;entryX=0.5;entryY=0;entryDx=0;entryDy=0;endArrow=none;endFill=0;exitX=0.5;exitY=1;exitDx=0;exitDy=0;" parent="1" source="0vl_ml9dGBKqO1DsII89-37" target="_olEy-Z-6lNTrEM38_ys-11" edge="1">
          <mxGeometry relative="1" as="geometry" />
        </mxCell>
        <mxCell id="0vl_ml9dGBKqO1DsII89-37" value="HAS" style="rhombus;whiteSpace=wrap;html=1;" parent="1" vertex="1">
          <mxGeometry x="559.46" y="1100" width="80" height="80" as="geometry" />
        </mxCell>
        <mxCell id="AmkGwpUtt9LcvmTKhLFC-48" style="rounded=0;orthogonalLoop=1;jettySize=auto;html=1;entryX=0;entryY=0;entryDx=0;entryDy=0;endArrow=none;endFill=0;exitX=1;exitY=0.5;exitDx=0;exitDy=0;" parent="1" source="0vl_ml9dGBKqO1DsII89-38" target="elJPMxUwocIPXj9SfTBA-1" edge="1">
          <mxGeometry relative="1" as="geometry" />
        </mxCell>
        <mxCell id="0vl_ml9dGBKqO1DsII89-38" value="MAKE" style="rhombus;whiteSpace=wrap;html=1;" parent="1" vertex="1">
          <mxGeometry x="524.46" y="800" width="80" height="80" as="geometry" />
        </mxCell>
        <mxCell id="AmkGwpUtt9LcvmTKhLFC-52" style="rounded=0;orthogonalLoop=1;jettySize=auto;html=1;entryX=0;entryY=0.5;entryDx=0;entryDy=0;endArrow=none;endFill=0;exitX=1;exitY=0.5;exitDx=0;exitDy=0;" parent="1" source="0vl_ml9dGBKqO1DsII89-39" target="pswLXlgRhIOzRUMfWMuT-1" edge="1">
          <mxGeometry relative="1" as="geometry" />
        </mxCell>
        <mxCell id="0vl_ml9dGBKqO1DsII89-39" value="HAS" style="rhombus;whiteSpace=wrap;html=1;" parent="1" vertex="1">
          <mxGeometry x="1090" y="960" width="80" height="80" as="geometry" />
        </mxCell>
        <mxCell id="AmkGwpUtt9LcvmTKhLFC-42" style="rounded=0;orthogonalLoop=1;jettySize=auto;html=1;entryX=0.5;entryY=0;entryDx=0;entryDy=0;endArrow=none;endFill=0;exitX=1;exitY=0.5;exitDx=0;exitDy=0;" parent="1" source="0vl_ml9dGBKqO1DsII89-40" target="W85gKqtLE7fSGm-5N2FF-1" edge="1">
          <mxGeometry relative="1" as="geometry" />
        </mxCell>
        <mxCell id="0vl_ml9dGBKqO1DsII89-40" value="HAS" style="rhombus;whiteSpace=wrap;html=1;" parent="1" vertex="1">
          <mxGeometry x="910" y="1350" width="80" height="80" as="geometry" />
        </mxCell>
        <mxCell id="0vl_ml9dGBKqO1DsII89-42" value="HAS" style="rhombus;whiteSpace=wrap;html=1;" parent="1" vertex="1">
          <mxGeometry x="1220" y="1230" width="80" height="80" as="geometry" />
        </mxCell>
        <mxCell id="0vl_ml9dGBKqO1DsII89-43" value="HAS" style="rhombus;whiteSpace=wrap;html=1;" parent="1" vertex="1">
          <mxGeometry x="1290" y="750" width="80" height="80" as="geometry" />
        </mxCell>
        <mxCell id="0vl_ml9dGBKqO1DsII89-44" value="CREATE" style="rhombus;whiteSpace=wrap;html=1;" parent="1" vertex="1">
          <mxGeometry x="224.73" y="-140" width="80" height="80" as="geometry" />
        </mxCell>
        <mxCell id="AmkGwpUtt9LcvmTKhLFC-26" style="rounded=0;orthogonalLoop=1;jettySize=auto;html=1;entryX=0;entryY=0;entryDx=0;entryDy=0;endArrow=none;endFill=0;" parent="1" source="imBUSN6t5A8o49-1CBIQ-1" target="_olEy-Z-6lNTrEM38_ys-18" edge="1">
          <mxGeometry relative="1" as="geometry" />
        </mxCell>
        <mxCell id="imBUSN6t5A8o49-1CBIQ-1" value="startOn" style="ellipse;whiteSpace=wrap;html=1;" parent="1" vertex="1">
          <mxGeometry x="-9.999999999999943" y="1270" width="150" height="60" as="geometry" />
        </mxCell>
        <mxCell id="AmkGwpUtt9LcvmTKhLFC-27" style="rounded=0;orthogonalLoop=1;jettySize=auto;html=1;entryX=0;entryY=1;entryDx=0;entryDy=0;endArrow=none;endFill=0;" parent="1" source="imBUSN6t5A8o49-1CBIQ-2" target="_olEy-Z-6lNTrEM38_ys-18" edge="1">
          <mxGeometry relative="1" as="geometry" />
        </mxCell>
        <mxCell id="imBUSN6t5A8o49-1CBIQ-2" value="endOn" style="ellipse;whiteSpace=wrap;html=1;" parent="1" vertex="1">
          <mxGeometry x="-9.999999999999943" y="1430" width="150" height="60" as="geometry" />
        </mxCell>
        <mxCell id="AmkGwpUtt9LcvmTKhLFC-23" style="rounded=0;orthogonalLoop=1;jettySize=auto;html=1;entryX=0;entryY=0.5;entryDx=0;entryDy=0;endArrow=none;endFill=0;exitX=1;exitY=0.75;exitDx=0;exitDy=0;" parent="1" source="AmkGwpUtt9LcvmTKhLFC-7" target="AmkGwpUtt9LcvmTKhLFC-20" edge="1">
          <mxGeometry relative="1" as="geometry" />
        </mxCell>
        <mxCell id="AmkGwpUtt9LcvmTKhLFC-24" style="rounded=0;orthogonalLoop=1;jettySize=auto;html=1;entryX=0.5;entryY=0;entryDx=0;entryDy=0;endArrow=none;endFill=0;" parent="1" source="AmkGwpUtt9LcvmTKhLFC-7" target="AmkGwpUtt9LcvmTKhLFC-15" edge="1">
          <mxGeometry relative="1" as="geometry" />
        </mxCell>
        <mxCell id="AmkGwpUtt9LcvmTKhLFC-33" style="rounded=0;orthogonalLoop=1;jettySize=auto;html=1;entryX=0.5;entryY=0;entryDx=0;entryDy=0;endArrow=none;endFill=0;" parent="1" source="AmkGwpUtt9LcvmTKhLFC-7" target="0vl_ml9dGBKqO1DsII89-37" edge="1">
          <mxGeometry relative="1" as="geometry" />
        </mxCell>
        <mxCell id="AmkGwpUtt9LcvmTKhLFC-203" style="rounded=0;orthogonalLoop=1;jettySize=auto;html=1;entryX=1;entryY=0.5;entryDx=0;entryDy=0;endArrow=none;endFill=0;" parent="1" source="AmkGwpUtt9LcvmTKhLFC-7" target="AmkGwpUtt9LcvmTKhLFC-202" edge="1">
          <mxGeometry relative="1" as="geometry" />
        </mxCell>
        <mxCell id="AmkGwpUtt9LcvmTKhLFC-7" value="PAYMENT" style="rounded=0;whiteSpace=wrap;html=1;" parent="1" vertex="1">
          <mxGeometry x="280.00000000000006" y="940" width="180" height="60" as="geometry" />
        </mxCell>
        <mxCell id="AmkGwpUtt9LcvmTKhLFC-25" style="rounded=0;orthogonalLoop=1;jettySize=auto;html=1;entryX=0.5;entryY=0;entryDx=0;entryDy=0;endArrow=none;endFill=0;exitX=0.5;exitY=1;exitDx=0;exitDy=0;" parent="1" source="AmkGwpUtt9LcvmTKhLFC-15" target="_olEy-Z-6lNTrEM38_ys-18" edge="1">
          <mxGeometry relative="1" as="geometry" />
        </mxCell>
        <mxCell id="AmkGwpUtt9LcvmTKhLFC-15" value="HAS" style="rhombus;whiteSpace=wrap;html=1;" parent="1" vertex="1">
          <mxGeometry x="285" y="1130" width="80" height="80" as="geometry" />
        </mxCell>
        <mxCell id="AmkGwpUtt9LcvmTKhLFC-22" style="rounded=0;orthogonalLoop=1;jettySize=auto;html=1;entryX=1;entryY=0.25;entryDx=0;entryDy=0;endArrow=none;endFill=0;exitX=0;exitY=0.5;exitDx=0;exitDy=0;" parent="1" source="AmkGwpUtt9LcvmTKhLFC-18" target="AmkGwpUtt9LcvmTKhLFC-7" edge="1">
          <mxGeometry relative="1" as="geometry" />
        </mxCell>
        <mxCell id="AmkGwpUtt9LcvmTKhLFC-18" value="type" style="ellipse;whiteSpace=wrap;html=1;" parent="1" vertex="1">
          <mxGeometry x="500.00000000000006" y="900" width="150" height="60" as="geometry" />
        </mxCell>
        <mxCell id="AmkGwpUtt9LcvmTKhLFC-21" style="rounded=0;orthogonalLoop=1;jettySize=auto;html=1;entryX=0.75;entryY=0;entryDx=0;entryDy=0;endArrow=none;endFill=0;exitX=0.5;exitY=1;exitDx=0;exitDy=0;" parent="1" source="AmkGwpUtt9LcvmTKhLFC-19" target="AmkGwpUtt9LcvmTKhLFC-7" edge="1">
          <mxGeometry relative="1" as="geometry" />
        </mxCell>
        <mxCell id="AmkGwpUtt9LcvmTKhLFC-19" value="&lt;u&gt;paymentID&lt;/u&gt;" style="ellipse;whiteSpace=wrap;html=1;" parent="1" vertex="1">
          <mxGeometry x="338.46000000000004" y="850" width="150" height="60" as="geometry" />
        </mxCell>
        <mxCell id="AmkGwpUtt9LcvmTKhLFC-20" value="createdOn" style="ellipse;whiteSpace=wrap;html=1;" parent="1" vertex="1">
          <mxGeometry x="500.00000000000006" y="970" width="150" height="60" as="geometry" />
        </mxCell>
        <mxCell id="AmkGwpUtt9LcvmTKhLFC-32" style="rounded=0;orthogonalLoop=1;jettySize=auto;html=1;entryX=0.25;entryY=0;entryDx=0;entryDy=0;endArrow=none;endFill=0;exitX=0.5;exitY=1;exitDx=0;exitDy=0;" parent="1" source="AmkGwpUtt9LcvmTKhLFC-31" target="_olEy-Z-6lNTrEM38_ys-18" edge="1">
          <mxGeometry relative="1" as="geometry" />
        </mxCell>
        <mxCell id="AmkGwpUtt9LcvmTKhLFC-31" value="&lt;u&gt;membershipSubscriptionID&lt;/u&gt;" style="ellipse;whiteSpace=wrap;html=1;" parent="1" vertex="1">
          <mxGeometry x="105.00000000000006" y="1200" width="150" height="60" as="geometry" />
        </mxCell>
        <mxCell id="AmkGwpUtt9LcvmTKhLFC-38" style="rounded=0;orthogonalLoop=1;jettySize=auto;html=1;entryX=0;entryY=0.5;entryDx=0;entryDy=0;endArrow=none;endFill=0;" parent="1" source="AmkGwpUtt9LcvmTKhLFC-35" target="_olEy-Z-6lNTrEM38_ys-11" edge="1">
          <mxGeometry relative="1" as="geometry" />
        </mxCell>
        <mxCell id="AmkGwpUtt9LcvmTKhLFC-35" value="&lt;u&gt;fitnessClassSubscriptionID&lt;/u&gt;" style="ellipse;whiteSpace=wrap;html=1;" parent="1" vertex="1">
          <mxGeometry x="470.00000000000006" y="1250" width="150" height="60" as="geometry" />
        </mxCell>
        <mxCell id="AmkGwpUtt9LcvmTKhLFC-39" style="rounded=0;orthogonalLoop=1;jettySize=auto;html=1;entryX=0.75;entryY=0;entryDx=0;entryDy=0;endArrow=none;endFill=0;" parent="1" source="AmkGwpUtt9LcvmTKhLFC-36" target="_olEy-Z-6lNTrEM38_ys-11" edge="1">
          <mxGeometry relative="1" as="geometry" />
        </mxCell>
        <mxCell id="AmkGwpUtt9LcvmTKhLFC-36" value="startOn" style="ellipse;whiteSpace=wrap;html=1;" parent="1" vertex="1">
          <mxGeometry x="735" y="1130" width="150" height="60" as="geometry" />
        </mxCell>
        <mxCell id="AmkGwpUtt9LcvmTKhLFC-40" style="rounded=0;orthogonalLoop=1;jettySize=auto;html=1;entryX=1;entryY=0;entryDx=0;entryDy=0;endArrow=none;endFill=0;exitX=0;exitY=1;exitDx=0;exitDy=0;" parent="1" source="AmkGwpUtt9LcvmTKhLFC-37" target="_olEy-Z-6lNTrEM38_ys-11" edge="1">
          <mxGeometry relative="1" as="geometry" />
        </mxCell>
        <mxCell id="AmkGwpUtt9LcvmTKhLFC-37" value="endOn" style="ellipse;whiteSpace=wrap;html=1;" parent="1" vertex="1">
          <mxGeometry x="905" y="1160" width="150" height="60" as="geometry" />
        </mxCell>
        <mxCell id="AmkGwpUtt9LcvmTKhLFC-45" value="description" style="ellipse;whiteSpace=wrap;html=1;" parent="1" vertex="1">
          <mxGeometry x="1170" y="1540" width="150" height="60" as="geometry" />
        </mxCell>
        <mxCell id="AmkGwpUtt9LcvmTKhLFC-59" value="&lt;u&gt;fitnessClassScheduleID&lt;/u&gt;" style="ellipse;whiteSpace=wrap;html=1;" parent="1" vertex="1">
          <mxGeometry x="1410" y="880" width="150" height="60" as="geometry" />
        </mxCell>
        <mxCell id="AmkGwpUtt9LcvmTKhLFC-61" value="createdOn" style="ellipse;whiteSpace=wrap;html=1;" parent="1" vertex="1">
          <mxGeometry x="1560" y="1030" width="150" height="60" as="geometry" />
        </mxCell>
        <mxCell id="AmkGwpUtt9LcvmTKhLFC-74" style="rounded=0;orthogonalLoop=1;jettySize=auto;html=1;entryX=0.75;entryY=1;entryDx=0;entryDy=0;endArrow=none;endFill=0;" parent="1" source="AmkGwpUtt9LcvmTKhLFC-73" target="pswLXlgRhIOzRUMfWMuT-1" edge="1">
          <mxGeometry relative="1" as="geometry" />
        </mxCell>
        <mxCell id="AmkGwpUtt9LcvmTKhLFC-73" value="pax" style="ellipse;whiteSpace=wrap;html=1;" parent="1" vertex="1">
          <mxGeometry x="1410" y="1080" width="150" height="60" as="geometry" />
        </mxCell>
        <mxCell id="AmkGwpUtt9LcvmTKhLFC-102" style="rounded=0;orthogonalLoop=1;jettySize=auto;html=1;entryX=0.5;entryY=1;entryDx=0;entryDy=0;endArrow=none;endFill=0;exitX=0.5;exitY=0;exitDx=0;exitDy=0;" parent="1" source="AmkGwpUtt9LcvmTKhLFC-81" target="AmkGwpUtt9LcvmTKhLFC-95" edge="1">
          <mxGeometry relative="1" as="geometry" />
        </mxCell>
        <mxCell id="AmkGwpUtt9LcvmTKhLFC-81" value="HAS" style="rhombus;whiteSpace=wrap;html=1;" parent="1" vertex="1">
          <mxGeometry x="-590" y="1450" width="80" height="80" as="geometry" />
        </mxCell>
        <mxCell id="AmkGwpUtt9LcvmTKhLFC-93" style="rounded=0;orthogonalLoop=1;jettySize=auto;html=1;entryX=0;entryY=0.5;entryDx=0;entryDy=0;endArrow=none;endFill=0;" parent="1" source="AmkGwpUtt9LcvmTKhLFC-82" target="TWkLmpELnD5CYzsGqXO2-3" edge="1">
          <mxGeometry relative="1" as="geometry" />
        </mxCell>
        <mxCell id="AmkGwpUtt9LcvmTKhLFC-82" value="&lt;u&gt;nutrionistBookingID&lt;/u&gt;" style="ellipse;whiteSpace=wrap;html=1;" parent="1" vertex="1">
          <mxGeometry x="-570" y="1060" width="150" height="60" as="geometry" />
        </mxCell>
        <mxCell id="AmkGwpUtt9LcvmTKhLFC-87" style="rounded=0;orthogonalLoop=1;jettySize=auto;html=1;entryX=1;entryY=0.75;entryDx=0;entryDy=0;endArrow=none;endFill=0;" parent="1" source="AmkGwpUtt9LcvmTKhLFC-85" target="TxXE0V31lfUGrQ-oovAM-1" edge="1">
          <mxGeometry relative="1" as="geometry" />
        </mxCell>
        <mxCell id="AmkGwpUtt9LcvmTKhLFC-85" value="description" style="ellipse;whiteSpace=wrap;html=1;" parent="1" vertex="1">
          <mxGeometry x="-480" y="1690" width="150" height="60" as="geometry" />
        </mxCell>
        <mxCell id="AmkGwpUtt9LcvmTKhLFC-86" value="type" style="ellipse;whiteSpace=wrap;html=1;" parent="1" vertex="1">
          <mxGeometry x="-480" y="1620" width="150" height="60" as="geometry" />
        </mxCell>
        <mxCell id="AmkGwpUtt9LcvmTKhLFC-100" style="rounded=0;orthogonalLoop=1;jettySize=auto;html=1;entryX=0;entryY=0.5;entryDx=0;entryDy=0;endArrow=none;endFill=0;" parent="1" source="AmkGwpUtt9LcvmTKhLFC-95" target="AmkGwpUtt9LcvmTKhLFC-99" edge="1">
          <mxGeometry relative="1" as="geometry">
            <mxPoint x="-340" y="1320" as="targetPoint" />
          </mxGeometry>
        </mxCell>
        <mxCell id="AmkGwpUtt9LcvmTKhLFC-103" style="rounded=0;orthogonalLoop=1;jettySize=auto;html=1;entryX=0.5;entryY=1;entryDx=0;entryDy=0;endArrow=none;endFill=0;" parent="1" source="AmkGwpUtt9LcvmTKhLFC-95" target="AmkGwpUtt9LcvmTKhLFC-101" edge="1">
          <mxGeometry relative="1" as="geometry" />
        </mxCell>
        <mxCell id="AmkGwpUtt9LcvmTKhLFC-95" value="NUTRIONIST_SCHEDULE" style="rounded=0;whiteSpace=wrap;html=1;" parent="1" vertex="1">
          <mxGeometry x="-625" y="1320" width="210" height="60" as="geometry" />
        </mxCell>
        <mxCell id="AmkGwpUtt9LcvmTKhLFC-97" style="rounded=0;orthogonalLoop=1;jettySize=auto;html=1;entryX=0;entryY=0.5;entryDx=0;entryDy=0;endArrow=none;endFill=0;" parent="1" source="AmkGwpUtt9LcvmTKhLFC-96" target="AmkGwpUtt9LcvmTKhLFC-95" edge="1">
          <mxGeometry relative="1" as="geometry" />
        </mxCell>
        <mxCell id="AmkGwpUtt9LcvmTKhLFC-96" value="&lt;u&gt;nutrionistScheduleID&lt;/u&gt;" style="ellipse;whiteSpace=wrap;html=1;" parent="1" vertex="1">
          <mxGeometry x="-850" y="1320" width="150" height="60" as="geometry" />
        </mxCell>
        <mxCell id="AmkGwpUtt9LcvmTKhLFC-99" value="createdOn" style="ellipse;whiteSpace=wrap;html=1;" parent="1" vertex="1">
          <mxGeometry x="-330" y="1320" width="150" height="60" as="geometry" />
        </mxCell>
        <mxCell id="AmkGwpUtt9LcvmTKhLFC-101" value="HAS" style="rhombus;whiteSpace=wrap;html=1;" parent="1" vertex="1">
          <mxGeometry x="-425" y="1190" width="80" height="80" as="geometry" />
        </mxCell>
        <mxCell id="AmkGwpUtt9LcvmTKhLFC-106" style="rounded=0;orthogonalLoop=1;jettySize=auto;html=1;entryX=0.5;entryY=0;entryDx=0;entryDy=0;endArrow=none;endFill=0;" parent="1" source="AmkGwpUtt9LcvmTKhLFC-105" target="elJPMxUwocIPXj9SfTBA-1" edge="1">
          <mxGeometry relative="1" as="geometry" />
        </mxCell>
        <mxCell id="AmkGwpUtt9LcvmTKhLFC-105" value="&lt;u&gt;fitnessClassBookingID&lt;/u&gt;" style="ellipse;whiteSpace=wrap;html=1;" parent="1" vertex="1">
          <mxGeometry x="775" y="810" width="150" height="60" as="geometry" />
        </mxCell>
        <mxCell id="AmkGwpUtt9LcvmTKhLFC-114" style="rounded=0;orthogonalLoop=1;jettySize=auto;html=1;entryX=0;entryY=0;entryDx=0;entryDy=0;endArrow=none;endFill=0;exitX=1;exitY=1;exitDx=0;exitDy=0;" parent="1" source="AmkGwpUtt9LcvmTKhLFC-109" target="F4fDOVN2BI83f4sGxxk9-1" edge="1">
          <mxGeometry relative="1" as="geometry" />
        </mxCell>
        <mxCell id="AmkGwpUtt9LcvmTKhLFC-109" value="&lt;u&gt;waterConsumptionID&lt;/u&gt;" style="ellipse;whiteSpace=wrap;html=1;" parent="1" vertex="1">
          <mxGeometry x="-1000" y="920" width="150" height="60" as="geometry" />
        </mxCell>
        <mxCell id="AmkGwpUtt9LcvmTKhLFC-112" style="rounded=0;orthogonalLoop=1;jettySize=auto;html=1;entryX=0;entryY=0.5;entryDx=0;entryDy=0;endArrow=none;endFill=0;" parent="1" source="AmkGwpUtt9LcvmTKhLFC-111" target="F4fDOVN2BI83f4sGxxk9-1" edge="1">
          <mxGeometry relative="1" as="geometry" />
        </mxCell>
        <mxCell id="AmkGwpUtt9LcvmTKhLFC-111" value="litres" style="ellipse;whiteSpace=wrap;html=1;" parent="1" vertex="1">
          <mxGeometry x="-1000" y="1020" width="150" height="60" as="geometry" />
        </mxCell>
        <mxCell id="AmkGwpUtt9LcvmTKhLFC-132" style="rounded=0;orthogonalLoop=1;jettySize=auto;html=1;entryX=0;entryY=0.75;entryDx=0;entryDy=0;endArrow=none;endFill=0;exitX=1;exitY=0;exitDx=0;exitDy=0;" parent="1" source="AmkGwpUtt9LcvmTKhLFC-117" target="F4fDOVN2BI83f4sGxxk9-1" edge="1">
          <mxGeometry relative="1" as="geometry" />
        </mxCell>
        <mxCell id="AmkGwpUtt9LcvmTKhLFC-117" value="recordedOn" style="ellipse;whiteSpace=wrap;html=1;" parent="1" vertex="1">
          <mxGeometry x="-1000" y="1120" width="150" height="60" as="geometry" />
        </mxCell>
        <mxCell id="AmkGwpUtt9LcvmTKhLFC-122" style="rounded=0;orthogonalLoop=1;jettySize=auto;html=1;entryX=0;entryY=0.25;entryDx=0;entryDy=0;endArrow=none;endFill=0;exitX=1;exitY=1;exitDx=0;exitDy=0;" parent="1" source="AmkGwpUtt9LcvmTKhLFC-118" target="CAGGtpWxBl3KJYStU8Ag-1" edge="1">
          <mxGeometry relative="1" as="geometry" />
        </mxCell>
        <mxCell id="AmkGwpUtt9LcvmTKhLFC-118" value="&lt;u&gt;weightID&lt;/u&gt;" style="ellipse;whiteSpace=wrap;html=1;" parent="1" vertex="1">
          <mxGeometry x="-795" y="710" width="150" height="60" as="geometry" />
        </mxCell>
        <mxCell id="AmkGwpUtt9LcvmTKhLFC-121" style="rounded=0;orthogonalLoop=1;jettySize=auto;html=1;entryX=0;entryY=0.5;entryDx=0;entryDy=0;endArrow=none;endFill=0;" parent="1" source="AmkGwpUtt9LcvmTKhLFC-119" target="CAGGtpWxBl3KJYStU8Ag-1" edge="1">
          <mxGeometry relative="1" as="geometry" />
        </mxCell>
        <mxCell id="AmkGwpUtt9LcvmTKhLFC-119" value="weight" style="ellipse;whiteSpace=wrap;html=1;" parent="1" vertex="1">
          <mxGeometry x="-795" y="810" width="150" height="60" as="geometry" />
        </mxCell>
        <mxCell id="AmkGwpUtt9LcvmTKhLFC-123" style="rounded=0;orthogonalLoop=1;jettySize=auto;html=1;entryX=0;entryY=0.75;entryDx=0;entryDy=0;endArrow=none;endFill=0;exitX=1;exitY=0;exitDx=0;exitDy=0;" parent="1" source="AmkGwpUtt9LcvmTKhLFC-120" target="CAGGtpWxBl3KJYStU8Ag-1" edge="1">
          <mxGeometry relative="1" as="geometry" />
        </mxCell>
        <mxCell id="AmkGwpUtt9LcvmTKhLFC-120" value="recordedOn" style="ellipse;whiteSpace=wrap;html=1;" parent="1" vertex="1">
          <mxGeometry x="-795" y="910" width="150" height="60" as="geometry" />
        </mxCell>
        <mxCell id="AmkGwpUtt9LcvmTKhLFC-142" style="rounded=0;orthogonalLoop=1;jettySize=auto;html=1;entryX=0;entryY=0.25;entryDx=0;entryDy=0;endArrow=none;endFill=0;exitX=1;exitY=1;exitDx=0;exitDy=0;" parent="1" source="AmkGwpUtt9LcvmTKhLFC-124" target="xmJPe9lSXJA1enkUnFtX-2" edge="1">
          <mxGeometry relative="1" as="geometry" />
        </mxCell>
        <mxCell id="AmkGwpUtt9LcvmTKhLFC-124" value="&lt;u&gt;exerciseRoutineID&lt;/u&gt;" style="ellipse;whiteSpace=wrap;html=1;" parent="1" vertex="1">
          <mxGeometry x="-970" y="550" width="150" height="60" as="geometry" />
        </mxCell>
        <mxCell id="AmkGwpUtt9LcvmTKhLFC-141" style="rounded=0;orthogonalLoop=1;jettySize=auto;html=1;entryX=0;entryY=0.75;entryDx=0;entryDy=0;endArrow=none;endFill=0;exitX=1;exitY=0;exitDx=0;exitDy=0;" parent="1" source="AmkGwpUtt9LcvmTKhLFC-126" target="xmJPe9lSXJA1enkUnFtX-2" edge="1">
          <mxGeometry relative="1" as="geometry" />
        </mxCell>
        <mxCell id="AmkGwpUtt9LcvmTKhLFC-126" value="recordedOn" style="ellipse;whiteSpace=wrap;html=1;" parent="1" vertex="1">
          <mxGeometry x="-970" y="650" width="150" height="60" as="geometry" />
        </mxCell>
        <mxCell id="AmkGwpUtt9LcvmTKhLFC-155" style="rounded=0;orthogonalLoop=1;jettySize=auto;html=1;entryX=1;entryY=0.5;entryDx=0;entryDy=0;exitX=0;exitY=0.75;exitDx=0;exitDy=0;endArrow=none;endFill=0;" parent="1" source="AmkGwpUtt9LcvmTKhLFC-143" target="AmkGwpUtt9LcvmTKhLFC-146" edge="1">
          <mxGeometry relative="1" as="geometry" />
        </mxCell>
        <mxCell id="AmkGwpUtt9LcvmTKhLFC-157" style="rounded=0;orthogonalLoop=1;jettySize=auto;html=1;entryX=1;entryY=1;entryDx=0;entryDy=0;endArrow=none;endFill=0;exitX=0;exitY=0.25;exitDx=0;exitDy=0;" parent="1" source="AmkGwpUtt9LcvmTKhLFC-143" target="AmkGwpUtt9LcvmTKhLFC-154" edge="1">
          <mxGeometry relative="1" as="geometry" />
        </mxCell>
        <mxCell id="AmkGwpUtt9LcvmTKhLFC-161" style="rounded=0;orthogonalLoop=1;jettySize=auto;html=1;entryX=0;entryY=0.5;entryDx=0;entryDy=0;endArrow=none;endFill=0;exitX=0.5;exitY=0;exitDx=0;exitDy=0;" parent="1" source="AmkGwpUtt9LcvmTKhLFC-143" target="AmkGwpUtt9LcvmTKhLFC-144" edge="1">
          <mxGeometry relative="1" as="geometry" />
        </mxCell>
        <mxCell id="AmkGwpUtt9LcvmTKhLFC-143" value="EXERCISE_ROUTINE_DETAIL" style="rounded=0;whiteSpace=wrap;html=1;" parent="1" vertex="1">
          <mxGeometry x="-870" y="337" width="210" height="60" as="geometry" />
        </mxCell>
        <mxCell id="AmkGwpUtt9LcvmTKhLFC-144" value="PERFORMED IN" style="rhombus;whiteSpace=wrap;html=1;" parent="1" vertex="1">
          <mxGeometry x="-645" y="240" width="120" height="110" as="geometry" />
        </mxCell>
        <mxCell id="AmkGwpUtt9LcvmTKhLFC-150" style="rounded=0;orthogonalLoop=1;jettySize=auto;html=1;entryX=1;entryY=0;entryDx=0;entryDy=0;endArrow=none;endFill=0;exitX=0;exitY=1;exitDx=0;exitDy=0;" parent="1" source="AmkGwpUtt9LcvmTKhLFC-145" target="F4fDOVN2BI83f4sGxxk9-3" edge="1">
          <mxGeometry relative="1" as="geometry" />
        </mxCell>
        <mxCell id="AmkGwpUtt9LcvmTKhLFC-145" value="description" style="ellipse;whiteSpace=wrap;html=1;" parent="1" vertex="1">
          <mxGeometry x="-300" y="140" width="150" height="60" as="geometry" />
        </mxCell>
        <mxCell id="AmkGwpUtt9LcvmTKhLFC-146" value="restTime" style="ellipse;whiteSpace=wrap;html=1;" parent="1" vertex="1">
          <mxGeometry x="-1090" y="387" width="150" height="60" as="geometry" />
        </mxCell>
        <mxCell id="AmkGwpUtt9LcvmTKhLFC-159" style="rounded=0;orthogonalLoop=1;jettySize=auto;html=1;entryX=0.5;entryY=1;entryDx=0;entryDy=0;endArrow=none;endFill=0;exitX=0.5;exitY=0;exitDx=0;exitDy=0;" parent="1" source="AmkGwpUtt9LcvmTKhLFC-147" target="AmkGwpUtt9LcvmTKhLFC-143" edge="1">
          <mxGeometry relative="1" as="geometry" />
        </mxCell>
        <mxCell id="AmkGwpUtt9LcvmTKhLFC-147" value="HAS" style="rhombus;whiteSpace=wrap;html=1;" parent="1" vertex="1">
          <mxGeometry x="-760" y="450" width="80" height="80" as="geometry" />
        </mxCell>
        <mxCell id="AmkGwpUtt9LcvmTKhLFC-152" style="rounded=0;orthogonalLoop=1;jettySize=auto;html=1;entryX=0.75;entryY=1;entryDx=0;entryDy=0;endArrow=none;endFill=0;" parent="1" source="AmkGwpUtt9LcvmTKhLFC-151" target="TWkLmpELnD5CYzsGqXO2-3" edge="1">
          <mxGeometry relative="1" as="geometry" />
        </mxCell>
        <mxCell id="AmkGwpUtt9LcvmTKhLFC-151" value="description" style="ellipse;whiteSpace=wrap;html=1;" parent="1" vertex="1">
          <mxGeometry x="-260" y="1170" width="150" height="60" as="geometry" />
        </mxCell>
        <mxCell id="AmkGwpUtt9LcvmTKhLFC-156" style="rounded=0;orthogonalLoop=1;jettySize=auto;html=1;entryX=0;entryY=0.5;entryDx=0;entryDy=0;endArrow=none;endFill=0;" parent="1" source="AmkGwpUtt9LcvmTKhLFC-153" target="AmkGwpUtt9LcvmTKhLFC-143" edge="1">
          <mxGeometry relative="1" as="geometry" />
        </mxCell>
        <mxCell id="AmkGwpUtt9LcvmTKhLFC-153" value="reps" style="ellipse;whiteSpace=wrap;html=1;" parent="1" vertex="1">
          <mxGeometry x="-1090" y="307" width="150" height="60" as="geometry" />
        </mxCell>
        <mxCell id="AmkGwpUtt9LcvmTKhLFC-154" value="weights" style="ellipse;whiteSpace=wrap;html=1;" parent="1" vertex="1">
          <mxGeometry x="-1065" y="220" width="150" height="60" as="geometry" />
        </mxCell>
        <mxCell id="AmkGwpUtt9LcvmTKhLFC-166" style="rounded=0;orthogonalLoop=1;jettySize=auto;html=1;entryX=0.25;entryY=1;entryDx=0;entryDy=0;endArrow=none;endFill=0;" parent="1" source="AmkGwpUtt9LcvmTKhLFC-163" target="yqMjIGPSeMZzKxb6o4rF-2" edge="1">
          <mxGeometry relative="1" as="geometry" />
        </mxCell>
        <mxCell id="AmkGwpUtt9LcvmTKhLFC-163" value="createdOn" style="ellipse;whiteSpace=wrap;html=1;" parent="1" vertex="1">
          <mxGeometry x="-330" y="-10" width="150" height="60" as="geometry" />
        </mxCell>
        <mxCell id="AmkGwpUtt9LcvmTKhLFC-167" style="rounded=0;orthogonalLoop=1;jettySize=auto;html=1;entryX=0;entryY=1;entryDx=0;entryDy=0;endArrow=none;endFill=0;" parent="1" source="AmkGwpUtt9LcvmTKhLFC-164" target="yqMjIGPSeMZzKxb6o4rF-2" edge="1">
          <mxGeometry relative="1" as="geometry" />
        </mxCell>
        <mxCell id="AmkGwpUtt9LcvmTKhLFC-164" value="status" style="ellipse;whiteSpace=wrap;html=1;" parent="1" vertex="1">
          <mxGeometry x="-440" y="-70" width="150" height="60" as="geometry" />
        </mxCell>
        <mxCell id="AmkGwpUtt9LcvmTKhLFC-169" value="HAS" style="rhombus;whiteSpace=wrap;html=1;" parent="1" vertex="1">
          <mxGeometry x="-20.00000000000003" y="-220" width="80" height="80" as="geometry" />
        </mxCell>
        <mxCell id="AmkGwpUtt9LcvmTKhLFC-178" style="rounded=0;orthogonalLoop=1;jettySize=auto;html=1;entryX=0.5;entryY=0;entryDx=0;entryDy=0;endArrow=none;endFill=0;" parent="1" source="AmkGwpUtt9LcvmTKhLFC-173" target="yqMjIGPSeMZzKxb6o4rF-1" edge="1">
          <mxGeometry relative="1" as="geometry" />
        </mxCell>
        <mxCell id="AmkGwpUtt9LcvmTKhLFC-173" value="message" style="ellipse;whiteSpace=wrap;html=1;" parent="1" vertex="1">
          <mxGeometry x="145" y="-470" width="150" height="60" as="geometry" />
        </mxCell>
        <mxCell id="AmkGwpUtt9LcvmTKhLFC-179" style="rounded=0;orthogonalLoop=1;jettySize=auto;html=1;entryX=0.75;entryY=0;entryDx=0;entryDy=0;endArrow=none;endFill=0;" parent="1" source="AmkGwpUtt9LcvmTKhLFC-174" target="yqMjIGPSeMZzKxb6o4rF-1" edge="1">
          <mxGeometry relative="1" as="geometry" />
        </mxCell>
        <mxCell id="AmkGwpUtt9LcvmTKhLFC-174" value="createdOn" style="ellipse;whiteSpace=wrap;html=1;" parent="1" vertex="1">
          <mxGeometry x="350" y="-420" width="150" height="60" as="geometry" />
        </mxCell>
        <mxCell id="AmkGwpUtt9LcvmTKhLFC-181" style="rounded=0;orthogonalLoop=1;jettySize=auto;html=1;entryX=0;entryY=0.25;entryDx=0;entryDy=0;endArrow=none;endFill=0;exitX=1;exitY=1;exitDx=0;exitDy=0;" parent="1" source="AmkGwpUtt9LcvmTKhLFC-180" target="yqMjIGPSeMZzKxb6o4rF-2" edge="1">
          <mxGeometry relative="1" as="geometry" />
        </mxCell>
        <mxCell id="AmkGwpUtt9LcvmTKhLFC-180" value="topic" style="ellipse;whiteSpace=wrap;html=1;" parent="1" vertex="1">
          <mxGeometry x="-430" y="-170" width="150" height="60" as="geometry" />
        </mxCell>
        <mxCell id="AmkGwpUtt9LcvmTKhLFC-182" value="1" style="text;html=1;align=center;verticalAlign=middle;resizable=0;points=[];autosize=1;strokeColor=none;fillColor=none;" parent="1" vertex="1">
          <mxGeometry x="-10" y="-140" width="30" height="30" as="geometry" />
        </mxCell>
        <mxCell id="AmkGwpUtt9LcvmTKhLFC-183" value="M" style="text;html=1;align=center;verticalAlign=middle;resizable=0;points=[];autosize=1;strokeColor=none;fillColor=none;" parent="1" vertex="1">
          <mxGeometry x="15" y="-250" width="30" height="30" as="geometry" />
        </mxCell>
        <mxCell id="AmkGwpUtt9LcvmTKhLFC-184" value="M" style="text;html=1;align=center;verticalAlign=middle;resizable=0;points=[];autosize=1;strokeColor=none;fillColor=none;" parent="1" vertex="1">
          <mxGeometry x="230" y="-160" width="30" height="30" as="geometry" />
        </mxCell>
        <mxCell id="AmkGwpUtt9LcvmTKhLFC-185" value="1" style="text;html=1;align=center;verticalAlign=middle;resizable=0;points=[];autosize=1;strokeColor=none;fillColor=none;" parent="1" vertex="1">
          <mxGeometry x="270" y="-70" width="30" height="30" as="geometry" />
        </mxCell>
        <mxCell id="AmkGwpUtt9LcvmTKhLFC-186" value="1" style="text;html=1;align=center;verticalAlign=middle;resizable=0;points=[];autosize=1;strokeColor=none;fillColor=none;" parent="1" vertex="1">
          <mxGeometry x="-55" y="240" width="30" height="30" as="geometry" />
        </mxCell>
        <mxCell id="AmkGwpUtt9LcvmTKhLFC-187" value="M" style="text;html=1;align=center;verticalAlign=middle;resizable=0;points=[];autosize=1;strokeColor=none;fillColor=none;" parent="1" vertex="1">
          <mxGeometry x="-90" y="155" width="30" height="30" as="geometry" />
        </mxCell>
        <mxCell id="AmkGwpUtt9LcvmTKhLFC-188" value="1" style="text;html=1;align=center;verticalAlign=middle;resizable=0;points=[];autosize=1;strokeColor=none;fillColor=none;" parent="1" vertex="1">
          <mxGeometry x="-260" y="490" width="30" height="30" as="geometry" />
        </mxCell>
        <mxCell id="AmkGwpUtt9LcvmTKhLFC-189" value="M" style="text;html=1;align=center;verticalAlign=middle;resizable=0;points=[];autosize=1;strokeColor=none;fillColor=none;" parent="1" vertex="1">
          <mxGeometry x="-310" y="417" width="30" height="30" as="geometry" />
        </mxCell>
        <mxCell id="AmkGwpUtt9LcvmTKhLFC-190" value="1" style="text;html=1;align=center;verticalAlign=middle;resizable=0;points=[];autosize=1;strokeColor=none;fillColor=none;fontStyle=1" parent="1" vertex="1">
          <mxGeometry x="-255" y="670" width="30" height="30" as="geometry" />
        </mxCell>
        <mxCell id="AmkGwpUtt9LcvmTKhLFC-191" value="M" style="text;html=1;align=center;verticalAlign=middle;resizable=0;points=[];autosize=1;strokeColor=none;fillColor=none;" parent="1" vertex="1">
          <mxGeometry x="-360" y="665" width="30" height="30" as="geometry" />
        </mxCell>
        <mxCell id="AmkGwpUtt9LcvmTKhLFC-192" value="1" style="text;html=1;align=center;verticalAlign=middle;resizable=0;points=[];autosize=1;strokeColor=none;fillColor=none;" parent="1" vertex="1">
          <mxGeometry x="-290" y="760" width="30" height="30" as="geometry" />
        </mxCell>
        <mxCell id="AmkGwpUtt9LcvmTKhLFC-193" value="1" style="text;html=1;align=center;verticalAlign=middle;resizable=0;points=[];autosize=1;strokeColor=none;fillColor=none;" parent="1" vertex="1">
          <mxGeometry x="-440" y="955" width="30" height="30" as="geometry" />
        </mxCell>
        <mxCell id="AmkGwpUtt9LcvmTKhLFC-194" value="M" style="text;html=1;align=center;verticalAlign=middle;resizable=0;points=[];autosize=1;strokeColor=none;fillColor=none;" parent="1" vertex="1">
          <mxGeometry x="-380" y="800" width="30" height="30" as="geometry" />
        </mxCell>
        <mxCell id="AmkGwpUtt9LcvmTKhLFC-195" value="M" style="text;html=1;align=center;verticalAlign=middle;resizable=0;points=[];autosize=1;strokeColor=none;fillColor=none;" parent="1" vertex="1">
          <mxGeometry x="-530" y="990" width="30" height="30" as="geometry" />
        </mxCell>
        <mxCell id="AmkGwpUtt9LcvmTKhLFC-196" value="M" style="text;html=1;align=center;verticalAlign=middle;resizable=0;points=[];autosize=1;strokeColor=none;fillColor=none;" parent="1" vertex="1">
          <mxGeometry x="-750" y="437" width="30" height="30" as="geometry" />
        </mxCell>
        <mxCell id="AmkGwpUtt9LcvmTKhLFC-197" value="1" style="text;html=1;align=center;verticalAlign=middle;resizable=0;points=[];autosize=1;strokeColor=none;fillColor=none;" parent="1" vertex="1">
          <mxGeometry x="-720" y="520" width="30" height="30" as="geometry" />
        </mxCell>
        <mxCell id="AmkGwpUtt9LcvmTKhLFC-198" value="1" style="text;html=1;align=center;verticalAlign=middle;resizable=0;points=[];autosize=1;strokeColor=none;fillColor=none;" parent="1" vertex="1">
          <mxGeometry x="-535" y="267" width="30" height="30" as="geometry" />
        </mxCell>
        <mxCell id="AmkGwpUtt9LcvmTKhLFC-199" value="M" style="text;html=1;align=center;verticalAlign=middle;resizable=0;points=[];autosize=1;strokeColor=none;fillColor=none;" parent="1" vertex="1">
          <mxGeometry x="-670" y="270" width="30" height="30" as="geometry" />
        </mxCell>
        <mxCell id="AmkGwpUtt9LcvmTKhLFC-200" value="1" style="text;html=1;align=center;verticalAlign=middle;resizable=0;points=[];autosize=1;strokeColor=none;fillColor=none;" parent="1" vertex="1">
          <mxGeometry x="-120" y="890" width="30" height="30" as="geometry" />
        </mxCell>
        <mxCell id="AmkGwpUtt9LcvmTKhLFC-201" value="M" style="text;html=1;align=center;verticalAlign=middle;resizable=0;points=[];autosize=1;strokeColor=none;fillColor=none;" parent="1" vertex="1">
          <mxGeometry x="-170" y="960" width="30" height="30" as="geometry" />
        </mxCell>
        <mxCell id="AmkGwpUtt9LcvmTKhLFC-202" value="HAS" style="rhombus;whiteSpace=wrap;html=1;" parent="1" vertex="1">
          <mxGeometry x="-20" y="1020" width="80" height="80" as="geometry" />
        </mxCell>
        <mxCell id="AmkGwpUtt9LcvmTKhLFC-205" value="1" style="text;html=1;align=center;verticalAlign=middle;resizable=0;points=[];autosize=1;strokeColor=none;fillColor=none;" parent="1" vertex="1">
          <mxGeometry x="-45" y="1060" width="30" height="30" as="geometry" />
        </mxCell>
        <mxCell id="AmkGwpUtt9LcvmTKhLFC-206" value="1" style="text;html=1;align=center;verticalAlign=middle;resizable=0;points=[];autosize=1;strokeColor=none;fillColor=none;" parent="1" vertex="1">
          <mxGeometry x="50" y="1030" width="30" height="30" as="geometry" />
        </mxCell>
        <mxCell id="AmkGwpUtt9LcvmTKhLFC-207" value="1" style="text;html=1;align=center;verticalAlign=middle;resizable=0;points=[];autosize=1;strokeColor=none;fillColor=none;" parent="1" vertex="1">
          <mxGeometry x="-425" y="1255" width="30" height="30" as="geometry" />
        </mxCell>
        <mxCell id="AmkGwpUtt9LcvmTKhLFC-208" value="1" style="text;html=1;align=center;verticalAlign=middle;resizable=0;points=[];autosize=1;strokeColor=none;fillColor=none;" parent="1" vertex="1">
          <mxGeometry x="-375" y="1180" width="30" height="30" as="geometry" />
        </mxCell>
        <mxCell id="AmkGwpUtt9LcvmTKhLFC-209" value="1" style="text;html=1;align=center;verticalAlign=middle;resizable=0;points=[];autosize=1;strokeColor=none;fillColor=none;" parent="1" vertex="1">
          <mxGeometry x="-580" y="1520" width="30" height="30" as="geometry" />
        </mxCell>
        <mxCell id="AmkGwpUtt9LcvmTKhLFC-210" value="M" style="text;html=1;align=center;verticalAlign=middle;resizable=0;points=[];autosize=1;strokeColor=none;fillColor=none;" parent="1" vertex="1">
          <mxGeometry x="-550" y="1430" width="30" height="30" as="geometry" />
        </mxCell>
        <mxCell id="AmkGwpUtt9LcvmTKhLFC-211" value="1" style="text;html=1;align=center;verticalAlign=middle;resizable=0;points=[];autosize=1;strokeColor=none;fillColor=none;" parent="1" vertex="1">
          <mxGeometry x="321.19" y="1110" width="30" height="30" as="geometry" />
        </mxCell>
        <mxCell id="AmkGwpUtt9LcvmTKhLFC-212" value="1" style="text;html=1;align=center;verticalAlign=middle;resizable=0;points=[];autosize=1;strokeColor=none;fillColor=none;" parent="1" vertex="1">
          <mxGeometry x="291.19" y="1200" width="30" height="30" as="geometry" />
        </mxCell>
        <mxCell id="AmkGwpUtt9LcvmTKhLFC-213" value="1" style="text;html=1;align=center;verticalAlign=middle;resizable=0;points=[];autosize=1;strokeColor=none;fillColor=none;" parent="1" vertex="1">
          <mxGeometry x="230" y="1595" width="30" height="30" as="geometry" />
        </mxCell>
        <mxCell id="AmkGwpUtt9LcvmTKhLFC-214" value="M" style="text;html=1;align=center;verticalAlign=middle;resizable=0;points=[];autosize=1;strokeColor=none;fillColor=none;" parent="1" vertex="1">
          <mxGeometry x="200" y="1490" width="30" height="30" as="geometry" />
        </mxCell>
        <mxCell id="AmkGwpUtt9LcvmTKhLFC-216" value="1" style="text;html=1;align=center;verticalAlign=middle;resizable=0;points=[];autosize=1;strokeColor=none;fillColor=none;" parent="1" vertex="1">
          <mxGeometry x="154.73000000000002" y="785" width="30" height="30" as="geometry" />
        </mxCell>
        <mxCell id="AmkGwpUtt9LcvmTKhLFC-218" value="M" style="text;html=1;align=center;verticalAlign=middle;resizable=0;points=[];autosize=1;strokeColor=none;fillColor=none;" parent="1" vertex="1">
          <mxGeometry x="200" y="860" width="30" height="30" as="geometry" />
        </mxCell>
        <mxCell id="AmkGwpUtt9LcvmTKhLFC-219" value="1" style="text;html=1;align=center;verticalAlign=middle;resizable=0;points=[];autosize=1;strokeColor=none;fillColor=none;" parent="1" vertex="1">
          <mxGeometry x="560" y="1090" width="30" height="30" as="geometry" />
        </mxCell>
        <mxCell id="AmkGwpUtt9LcvmTKhLFC-220" value="1" style="text;html=1;align=center;verticalAlign=middle;resizable=0;points=[];autosize=1;strokeColor=none;fillColor=none;" parent="1" vertex="1">
          <mxGeometry x="604.46" y="1160" width="30" height="30" as="geometry" />
        </mxCell>
        <mxCell id="AmkGwpUtt9LcvmTKhLFC-221" value="1" style="text;html=1;align=center;verticalAlign=middle;resizable=0;points=[];autosize=1;strokeColor=none;fillColor=none;" parent="1" vertex="1">
          <mxGeometry x="970" y="1390" width="30" height="30" as="geometry" />
        </mxCell>
        <mxCell id="AmkGwpUtt9LcvmTKhLFC-222" value="M" style="text;html=1;align=center;verticalAlign=middle;resizable=0;points=[];autosize=1;strokeColor=none;fillColor=none;" parent="1" vertex="1">
          <mxGeometry x="895" y="1350" width="30" height="30" as="geometry" />
        </mxCell>
        <mxCell id="AmkGwpUtt9LcvmTKhLFC-223" value="1" style="text;html=1;align=center;verticalAlign=middle;resizable=0;points=[];autosize=1;strokeColor=none;fillColor=none;" parent="1" vertex="1">
          <mxGeometry x="505" y="810" width="30" height="30" as="geometry" />
        </mxCell>
        <mxCell id="AmkGwpUtt9LcvmTKhLFC-224" value="M" style="text;html=1;align=center;verticalAlign=middle;resizable=0;points=[];autosize=1;strokeColor=none;fillColor=none;" parent="1" vertex="1">
          <mxGeometry x="590" y="840" width="30" height="30" as="geometry" />
        </mxCell>
        <mxCell id="AmkGwpUtt9LcvmTKhLFC-225" value="1" style="text;html=1;align=center;verticalAlign=middle;resizable=0;points=[];autosize=1;strokeColor=none;fillColor=none;" parent="1" vertex="1">
          <mxGeometry x="1160" y="1000" width="30" height="30" as="geometry" />
        </mxCell>
        <mxCell id="AmkGwpUtt9LcvmTKhLFC-226" value="M" style="text;html=1;align=center;verticalAlign=middle;resizable=0;points=[];autosize=1;strokeColor=none;fillColor=none;" parent="1" vertex="1">
          <mxGeometry x="1070" y="970" width="30" height="30" as="geometry" />
        </mxCell>
        <mxCell id="AmkGwpUtt9LcvmTKhLFC-227" value="1" style="text;html=1;align=center;verticalAlign=middle;resizable=0;points=[];autosize=1;strokeColor=none;fillColor=none;" parent="1" vertex="1">
          <mxGeometry x="1225" y="1290" width="30" height="30" as="geometry" />
        </mxCell>
        <mxCell id="AmkGwpUtt9LcvmTKhLFC-228" value="M" style="text;html=1;align=center;verticalAlign=middle;resizable=0;points=[];autosize=1;strokeColor=none;fillColor=none;" parent="1" vertex="1">
          <mxGeometry x="1260" y="1215" width="30" height="30" as="geometry" />
        </mxCell>
        <mxCell id="AmkGwpUtt9LcvmTKhLFC-229" value="1" style="text;html=1;align=center;verticalAlign=middle;resizable=0;points=[];autosize=1;strokeColor=none;fillColor=none;" parent="1" vertex="1">
          <mxGeometry x="1300" y="725" width="30" height="30" as="geometry" />
        </mxCell>
        <mxCell id="AmkGwpUtt9LcvmTKhLFC-230" value="M" style="text;html=1;align=center;verticalAlign=middle;resizable=0;points=[];autosize=1;strokeColor=none;fillColor=none;" parent="1" vertex="1">
          <mxGeometry x="1330" y="825" width="30" height="30" as="geometry" />
        </mxCell>
        <mxCell id="AmkGwpUtt9LcvmTKhLFC-234" style="rounded=0;orthogonalLoop=1;jettySize=auto;html=1;entryX=0;entryY=0.5;entryDx=0;entryDy=0;endArrow=none;endFill=0;" parent="1" source="AmkGwpUtt9LcvmTKhLFC-233" target="TWkLmpELnD5CYzsGqXO2-1" edge="1">
          <mxGeometry relative="1" as="geometry" />
        </mxCell>
        <mxCell id="AmkGwpUtt9LcvmTKhLFC-233" value="salary" style="ellipse;whiteSpace=wrap;html=1;" parent="1" vertex="1">
          <mxGeometry x="454.46" y="680" width="150" height="60" as="geometry" />
        </mxCell>
        <mxCell id="AmkGwpUtt9LcvmTKhLFC-235" value="joinedDate" style="ellipse;whiteSpace=wrap;html=1;" parent="1" vertex="1">
          <mxGeometry x="270" y="680" width="150" height="60" as="geometry" />
        </mxCell>
        <mxCell id="AmkGwpUtt9LcvmTKhLFC-237" value="hiredDate" style="ellipse;whiteSpace=wrap;html=1;" parent="1" vertex="1">
          <mxGeometry x="780" y="570" width="150" height="60" as="geometry" />
        </mxCell>
        <mxCell id="AmkGwpUtt9LcvmTKhLFC-242" value="status" style="ellipse;whiteSpace=wrap;html=1;" parent="1" vertex="1">
          <mxGeometry x="775" y="1030" width="150" height="60" as="geometry" />
        </mxCell>
        <mxCell id="yLSxOEjicixe5gM4evoc-1" style="rounded=0;orthogonalLoop=1;jettySize=auto;html=1;entryX=0.25;entryY=1;entryDx=0;entryDy=0;endArrow=none;endFill=0;" parent="1" source="yLSxOEjicixe5gM4evoc-2" target="_olEy-Z-6lNTrEM38_ys-13" edge="1">
          <mxGeometry relative="1" as="geometry">
            <mxPoint x="70.27000000000001" y="1755" as="targetPoint" />
          </mxGeometry>
        </mxCell>
        <mxCell id="yLSxOEjicixe5gM4evoc-2" value="name" style="ellipse;whiteSpace=wrap;html=1;" parent="1" vertex="1">
          <mxGeometry x="59.99999999999997" y="1800" width="150" height="60" as="geometry" />
        </mxCell>
        <mxCell id="yLSxOEjicixe5gM4evoc-4" style="rounded=0;orthogonalLoop=1;jettySize=auto;html=1;entryX=0.25;entryY=0;entryDx=0;entryDy=0;endArrow=none;endFill=0;" parent="1" source="yLSxOEjicixe5gM4evoc-3" target="AmkGwpUtt9LcvmTKhLFC-143" edge="1">
          <mxGeometry relative="1" as="geometry" />
        </mxCell>
        <mxCell id="yLSxOEjicixe5gM4evoc-3" value="&lt;u&gt;exerciseRoutineDetailID&lt;/u&gt;" style="ellipse;whiteSpace=wrap;html=1;" parent="1" vertex="1">
          <mxGeometry x="-894.84" y="190" width="150" height="60" as="geometry" />
        </mxCell>
        <mxCell id="yLSxOEjicixe5gM4evoc-6" style="rounded=0;orthogonalLoop=1;jettySize=auto;html=1;entryX=1;entryY=0.25;entryDx=0;entryDy=0;endArrow=none;endFill=0;exitX=0;exitY=0.5;exitDx=0;exitDy=0;" parent="1" source="yLSxOEjicixe5gM4evoc-5" target="pswLXlgRhIOzRUMfWMuT-1" edge="1">
          <mxGeometry relative="1" as="geometry" />
        </mxCell>
        <mxCell id="yLSxOEjicixe5gM4evoc-5" value="scheduledOn" style="ellipse;whiteSpace=wrap;html=1;" parent="1" vertex="1">
          <mxGeometry x="1560" y="930" width="150" height="60" as="geometry" />
        </mxCell>
        <mxCell id="2TvaYJTs-SckbT52ZaIm-2" style="rounded=0;orthogonalLoop=1;jettySize=auto;html=1;entryX=0.75;entryY=1;entryDx=0;entryDy=0;endArrow=none;endFill=0;exitX=0.5;exitY=0;exitDx=0;exitDy=0;" edge="1" parent="1" source="2TvaYJTs-SckbT52ZaIm-1" target="TWkLmpELnD5CYzsGqXO2-2">
          <mxGeometry relative="1" as="geometry" />
        </mxCell>
        <mxCell id="2TvaYJTs-SckbT52ZaIm-1" value="profileImageFilePath" style="ellipse;whiteSpace=wrap;html=1;" vertex="1" parent="1">
          <mxGeometry x="460" y="307" width="150" height="60" as="geometry" />
        </mxCell>
        <mxCell id="2TvaYJTs-SckbT52ZaIm-4" style="rounded=0;orthogonalLoop=1;jettySize=auto;html=1;entryX=1;entryY=1;entryDx=0;entryDy=0;endArrow=none;endFill=0;" edge="1" parent="1" source="2TvaYJTs-SckbT52ZaIm-3" target="C1i93S7AfEK_CjS4rVxK-1">
          <mxGeometry relative="1" as="geometry" />
        </mxCell>
        <mxCell id="2TvaYJTs-SckbT52ZaIm-3" value="instructorImageFilePath" style="ellipse;whiteSpace=wrap;html=1;" vertex="1" parent="1">
          <mxGeometry x="1410" y="665" width="150" height="60" as="geometry" />
        </mxCell>
        <mxCell id="2TvaYJTs-SckbT52ZaIm-6" style="rounded=0;orthogonalLoop=1;jettySize=auto;html=1;entryX=1;entryY=0.5;entryDx=0;entryDy=0;endArrow=none;endFill=0;" edge="1" parent="1" source="2TvaYJTs-SckbT52ZaIm-5" target="W85gKqtLE7fSGm-5N2FF-1">
          <mxGeometry relative="1" as="geometry" />
        </mxCell>
        <mxCell id="2TvaYJTs-SckbT52ZaIm-5" value="fitnessClassImageFilePath" style="ellipse;whiteSpace=wrap;html=1;" vertex="1" parent="1">
          <mxGeometry x="1240" y="1460" width="150" height="60" as="geometry" />
        </mxCell>
        <mxCell id="2TvaYJTs-SckbT52ZaIm-8" style="rounded=0;orthogonalLoop=1;jettySize=auto;html=1;entryX=0.75;entryY=0;entryDx=0;entryDy=0;endArrow=none;endFill=0;" edge="1" parent="1" source="2TvaYJTs-SckbT52ZaIm-7" target="TxXE0V31lfUGrQ-oovAM-1">
          <mxGeometry relative="1" as="geometry" />
        </mxCell>
        <mxCell id="2TvaYJTs-SckbT52ZaIm-7" value="&lt;div&gt;nutritionistImageFilePath&lt;/div&gt;" style="ellipse;whiteSpace=wrap;html=1;" vertex="1" parent="1">
          <mxGeometry x="-540" y="1550" width="150" height="60" as="geometry" />
        </mxCell>
        <mxCell id="2TvaYJTs-SckbT52ZaIm-11" style="rounded=0;orthogonalLoop=1;jettySize=auto;html=1;entryX=0.5;entryY=1;entryDx=0;entryDy=0;endArrow=none;endFill=0;" edge="1" parent="1" source="2TvaYJTs-SckbT52ZaIm-9" target="TxXE0V31lfUGrQ-oovAM-1">
          <mxGeometry relative="1" as="geometry" />
        </mxCell>
        <mxCell id="2TvaYJTs-SckbT52ZaIm-9" value="dateOfBirth" style="ellipse;whiteSpace=wrap;html=1;" vertex="1" parent="1">
          <mxGeometry x="-760" y="1840" width="150" height="60" as="geometry" />
        </mxCell>
      </root>
    </mxGraphModel>
  </diagram>
</mxfile>
